<?xml version="1.0" encoding="UTF-8"?>
<!DOCTYPE svg PUBLIC "-//W3C//DTD SVG 1.1//EN" "http://www.w3.org/Graphics/SVG/1.1/DTD/svg11.dtd">
<!-- Creator: CorelDRAW -->
<svg xmlns="http://www.w3.org/2000/svg" xml:space="preserve" width="91mm" height="55mm" style="shape-rendering:geometricPrecision; text-rendering:geometricPrecision; image-rendering:optimizeQuality; fill-rule:evenodd; clip-rule:evenodd"
viewBox="0 0 91 55"
 xmlns:xlink="http://www.w3.org/1999/xlink">
 <defs>
  <style type="text/css">
   <![CDATA[
    .str4 {stroke:white;stroke-width:0.2646}
    .str1 {stroke:black;stroke-width:0.5292}
    .str2 {stroke:black;stroke-width:0.7056}
    .str3 {stroke:black;stroke-width:0.8819}
    .str0 {stroke:black;stroke-width:5.2917}
    .fil0 {fill:none}
    .fil223 {fill:black}
    .fil218 {fill:navy}
    .fil96 {fill:#000181}
    .fil219 {fill:#000282}
    .fil217 {fill:#000382}
    .fil95 {fill:#000483}
    .fil4 {fill:#000584}
    .fil94 {fill:#000685}
    .fil216 {fill:#000786}
    .fil144 {fill:#000886}
    .fil93 {fill:#000987}
    .fil152 {fill:#000A88}
    .fil92 {fill:#000B89}
    .fil151 {fill:#000C8A}
    .fil215 {fill:#000D8A}
    .fil146 {fill:#000E8B}
    .fil150 {fill:#000F8C}
    .fil91 {fill:#00108D}
    .fil83 {fill:#00118E}
    .fil149 {fill:#00128E}
    .fil148 {fill:#00138F}
    .fil82 {fill:#001490}
    .fil81 {fill:#001591}
    .fil90 {fill:#001692}
    .fil143 {fill:#001792}
    .fil80 {fill:#001893}
    .fil107 {fill:#001994}
    .fil17 {fill:#001A95}
    .fil79 {fill:#001B96}
    .fil142 {fill:#001C96}
    .fil34 {fill:#001D97}
    .fil33 {fill:#001E98}
    .fil32 {fill:#001F99}
    .fil78 {fill:#00209A}
    .fil98 {fill:#00219A}
    .fil18 {fill:#00229B}
    .fil89 {fill:#00239C}
    .fil77 {fill:#00249D}
    .fil97 {fill:#00259E}
    .fil2 {fill:#00269E}
    .fil16 {fill:#00279F}
    .fil6 {fill:#0028A0}
    .fil19 {fill:#0029A1}
    .fil126 {fill:#002BA2}
    .fil7 {fill:#002CA3}
    .fil68 {fill:#002DA4}
    .fil76 {fill:#002EA5}
    .fil8 {fill:#002FA6}
    .fil15 {fill:#0030A6}
    .fil20 {fill:#0031A7}
    .fil75 {fill:#0032A8}
    .fil9 {fill:#0033A9}
    .fil67 {fill:#0034AA}
    .fil10 {fill:#0036AB}
    .fil14 {fill:#0037AC}
    .fil11 {fill:#0038AD}
    .fil12 {fill:#003AAE}
    .fil13 {fill:#003BAF}
    .fil66 {fill:#003CB0}
    .fil21 {fill:#0040B3}
    .fil65 {fill:#0044B6}
    .fil22 {fill:#0047B9}
    .fil127 {fill:#0048BA}
    .fil64 {fill:#004CBD}
    .fil23 {fill:#0050C0}
    .fil63 {fill:#0054C3}
    .fil128 {fill:#0056C5}
    .fil24 {fill:#0059C7}
    .fil88 {fill:#005AC8}
    .fil62 {fill:#005CCA}
    .fil234 {fill:#0078A0}
    .fil236 {fill:#008CAA}
    .fil222 {fill:#008CC7}
    .fil25 {fill:#0561CE}
    .fil129 {fill:#0864D0}
    .fil61 {fill:#0965D1}
    .fil87 {fill:#0C68D3}
    .fil26 {fill:#0F6AD5}
    .fil60 {fill:#126DD7}
    .fil130 {fill:#1772DB}
    .fil27 {fill:#1873DC}
    .fil59 {fill:#1B76DE}
    .fil86 {fill:#1E78E0}
    .fil28 {fill:#227CE3}
    .fil131 {fill:#247DE4}
    .fil58 {fill:#257EE5}
    .fil220 {fill:#2675AE}
    .fil29 {fill:#2F85E7}
    .fil57 {fill:#3287E7}
    .fil85 {fill:#3488E7}
    .fil132 {fill:#3689E7}
    .fil224 {fill:#3BB3C2}
    .fil30 {fill:#3E8EE8}
    .fil56 {fill:#408FE9}
    .fil133 {fill:#4793E9}
    .fil31 {fill:#4D96EA}
    .fil55 {fill:#4E97EA}
    .fil84 {fill:#4F98EA}
    .fil134 {fill:#569CEB}
    .fil54 {fill:#5B9FEC}
    .fil99 {fill:#62A2EC}
    .fil69 {fill:#63A3ED}
    .fil70 {fill:#64A4ED}
    .fil71 {fill:#65A4ED}
    .fil72 {fill:#65A5ED}
    .fil73 {fill:#66A5ED}
    .fil74 {fill:#67A5ED}
    .fil53 {fill:#68A6ED}
    .fil100 {fill:#6AA7ED}
    .fil101 {fill:#6DA9EE}
    .fil135 {fill:#71ABEE}
    .fil102 {fill:#72ACEE}
    .fil155 {fill:#73ACEE}
    .fil106 {fill:#73ADEF}
    .fil156 {fill:#74ADEF}
    .fil157 {fill:#74AEEF}
    .fil158 {fill:#75AEEF}
    .fil159 {fill:#76AEEF}
    .fil103 {fill:#76AFEF}
    .fil105 {fill:#77AFEF}
    .fil104 {fill:#78B0EF}
    .fil233 {fill:#78C8DC}
    .fil160 {fill:#79B0EF}
    .fil161 {fill:#7AB1EF}
    .fil162 {fill:#7BB1EF}
    .fil136 {fill:#7CB2F0}
    .fil163 {fill:#7DB3F0}
    .fil164 {fill:#7EB3F0}
    .fil165 {fill:#7FB4F0}
    .fil166 {fill:#80B4F0}
    .fil167 {fill:#80B5F0}
    .fil168 {fill:#81B5F0}
    .fil169 {fill:#82B6F0}
    .fil170 {fill:#83B6F0}
    .fil171 {fill:#84B7F1}
    .fil108 {fill:#85B7F1}
    .fil137 {fill:#86B8F1}
    .fil172 {fill:#87B9F1}
    .fil173 {fill:#89B9F1}
    .fil174 {fill:#8ABAF1}
    .fil175 {fill:#8BBBF1}
    .fil176 {fill:#8CBCF2}
    .fil138 {fill:#8DBCF2}
    .fil177 {fill:#8EBCF2}
    .fil153 {fill:#8FBDF2}
    .fil178 {fill:#90BEF2}
    .fil139 {fill:#92BFF2}
    .fil179 {fill:#93C0F2}
    .fil180 {fill:#95C1F3}
    .fil140 {fill:#96C1F3}
    .fil181 {fill:#97C2F3}
    .fil182 {fill:#99C3F3}
    .fil141 {fill:#9AC4F3}
    .fil183 {fill:#9CC5F3}
    .fil184 {fill:#9EC6F4}
    .fil185 {fill:#A0C7F4}
    .fil186 {fill:#A2C9F4}
    .fil187 {fill:#A5CAF4}
    .fil3 {fill:#A7CBF5}
    .fil188 {fill:#A9CDF5}
    .fil189 {fill:#ACCEF5}
    .fil154 {fill:#ADCFF5}
    .fil214 {fill:#AFD0F6}
    .fil213 {fill:#B1D1F6}
    .fil5 {fill:#B2D2F6}
    .fil212 {fill:#B3D3F6}
    .fil235 {fill:#B4DCE6}
    .fil211 {fill:#B5D4F6}
    .fil210 {fill:#B8D5F7}
    .fil209 {fill:#B9D6F7}
    .fil208 {fill:#BBD7F7}
    .fil207 {fill:#BDD8F7}
    .fil206 {fill:#BED9F7}
    .fil121 {fill:#C0DAF8}
    .fil205 {fill:#C1DBF8}
    .fil120 {fill:#C3DCF8}
    .fil204 {fill:#C4DCF8}
    .fil203 {fill:#C5DDF8}
    .fil202 {fill:#C6DEF8}
    .fil119 {fill:#C7DEF8}
    .fil201 {fill:#C8DFF9}
    .fil147 {fill:#C9DFF9}
    .fil118 {fill:#CAE0F9}
    .fil200 {fill:#CBE0F9}
    .fil1 {fill:#CBE1F9}
    .fil199 {fill:#CCE1F9}
    .fil198 {fill:#CDE1F9}
    .fil197 {fill:#CEE2F9}
    .fil117 {fill:#CFE2F9}
    .fil145 {fill:#CFE3F9}
    .fil196 {fill:#D0E3F9}
    .fil195 {fill:#D1E4FA}
    .fil194 {fill:#D2E5FA}
    .fil193 {fill:#D3E5FA}
    .fil192 {fill:#D4E6FA}
    .fil116 {fill:#D5E6FA}
    .fil191 {fill:#D6E7FA}
    .fil125 {fill:#D7E7FA}
    .fil124 {fill:#D8E8FA}
    .fil190 {fill:#D9E9FB}
    .fil123 {fill:#DAE9FB}
    .fil115 {fill:#DBEAFB}
    .fil122 {fill:#DDEBFB}
    .fil35 {fill:#DFECFB}
    .fil52 {fill:#E0EDFB}
    .fil51 {fill:#E1EDFB}
    .fil50 {fill:#E2EEFC}
    .fil49 {fill:#E3EEFC}
    .fil36 {fill:#E5F0FC}
    .fil114 {fill:#E8F1FC}
    .fil109 {fill:#EAF3FD}
    .fil37 {fill:#EBF3FD}
    .fil48 {fill:#ECF4FD}
    .fil113 {fill:#EEF5FD}
    .fil38 {fill:#EFF6FD}
    .fil47 {fill:#F1F7FD}
    .fil110 {fill:#F3F8FE}
    .fil39 {fill:#F4F8FE}
    .fil46 {fill:#F5F9FE}
    .fil40 {fill:#F7FAFE}
    .fil45 {fill:#F8FBFE}
    .fil111 {fill:#F9FBFE}
    .fil41 {fill:#F9FCFE}
    .fil44 {fill:#FAFCFE}
    .fil112 {fill:#FBFCFE}
    .fil42 {fill:#FBFDFF}
    .fil43 {fill:#FCFDFF}
    .fil221 {fill:#FF991A}
    .fil232 {fill:#FFFF8C}
    .fil225 {fill:url(#id0)}
    .fil226 {fill:url(#id1)}
    .fil227 {fill:url(#id2)}
    .fil231 {fill:url(#id3)}
    .fil228 {fill:url(#id4)}
    .fil229 {fill:url(#id5)}
    .fil230 {fill:url(#id6)}
   ]]>
  </style>
  <linearGradient id="id0" gradientUnits="userSpaceOnUse" x1="12.0808" y1="21.2673" x2="12.0808" y2="34.433">
   <stop offset="0" style="stop-color:#FFFFB5"/>
   <stop offset="1" style="stop-color:#FF7F00"/>
  </linearGradient>
  <linearGradient id="id1" gradientUnits="userSpaceOnUse" xlink:href="#id0" x1="22.1075" y1="21.2673" x2="22.1075" y2="34.433">
  </linearGradient>
  <linearGradient id="id2" gradientUnits="userSpaceOnUse" xlink:href="#id0" x1="32.134" y1="21.2673" x2="32.134" y2="34.433">
  </linearGradient>
  <linearGradient id="id3" gradientUnits="userSpaceOnUse" xlink:href="#id0" x1="41.8475" y1="21.2673" x2="41.8475" y2="34.433">
  </linearGradient>
  <linearGradient id="id4" gradientUnits="userSpaceOnUse" xlink:href="#id0" x1="52.5262" y1="21.2673" x2="52.5262" y2="34.433">
  </linearGradient>
  <linearGradient id="id5" gradientUnits="userSpaceOnUse" xlink:href="#id0" x1="66.5354" y1="21.2673" x2="66.5354" y2="34.433">
  </linearGradient>
  <linearGradient id="id6" gradientUnits="userSpaceOnUse" xlink:href="#id0" x1="78.8577" y1="21.2673" x2="78.8577" y2="34.433">
  </linearGradient>
 </defs>
 <g id="Capa_x0020_1">
  <metadata id="CorelCorpID_0Corel-Layer"/>
  <path class="fil0 str0" d="M39.4908 9.8754l-5.3741 1.4088 -0.7828 0.2261 -0.8173 0.2435c-0.6029,0.2319 -0.945,0.8695 -1.0261,1.9131l-0.3479 2.2435 -4.2785 0.8001c-0.5565,0.2435 -0.9159,0.6493 -1.0783,1.2174l-0.2609 0.7306 -17.7921 0 -3.3044 18.1572 21.253 0 0.2088 0.6087c0.1622,0.5798 0.5217,0.9914 1.0783,1.2349l4.2958 0.8 0.3304 2.2263c0.0813,1.055 0.4174,1.6985 1.0088,1.9304l0.8348 0.2435 0.7826 0.2261 5.3742 1.4089c2.5857,0.6029 4.6494,0.9043 6.1916,0.9043l0.1392 0c1.5421,0 3.6117,-0.3014 6.2089,-0.9043l5.3742 -1.4089 0.7652 -0.2261 0.8349 -0.2435c0.6029,-0.2319 0.945,-0.8754 1.0261,-1.9304l0.3303 -2.2263 4.2785 -0.8c0.5682,-0.2435 0.9335,-0.6551 1.0958,-1.2349l0.1913 -0.6087 16.5398 0 3.3046 -18.1572 -19.8792 0 -0.2609 -0.7306c-0.1739,-0.5681 -0.5333,-0.9739 -1.0783,-1.2174l-4.2958 -0.8001 -0.3305 -2.2435c-0.0927,-1.0436 -0.4348,-1.6812 -1.0261,-1.9131l-0.8175 -0.2435 -0.8 -0.2261 -5.3567 -1.4088c-2.5973,-0.6029 -4.6669,-0.9044 -6.209,-0.9044l-0.1217 0c-1.5422,0 -3.6119,0.3015 -6.209,0.9044z"/>
  <g id="_139116640">
   <polygon id="_138548112" class="fil1" points="6.098,18.2931 2.6544,37.2158 1.7325,38.0506 5.4718,17.4583 "/>
   <polygon id="_138547560" class="fil2" points="88.3973,17.4583 84.658,38.0506 84.0319,37.2158 87.4754,18.2931 "/>
   <polygon id="_139484600" class="fil3" points="87.4754,18.2931 66.7789,18.2931 67.3355,17.4583 88.3973,17.4583 "/>
   <polygon id="_139484048" class="fil4" points="24.2031,38.0506 1.7325,38.0506 2.6544,37.2158 24.7771,37.2158 "/>
   <polygon id="_138331800" class="fil4" points="66.8137,37.2158 84.0319,37.2158 84.658,38.0506 67.3877,38.0506 "/>
   <polygon id="_138331232" class="fil5" points="24.6205,18.2931 6.098,18.2931 5.4718,17.4583 24.0466,17.4583 "/>
   <polygon id="_22590384" class="fil6" points="66.605,37.8419 67.3877,38.068 67.3355,38.2071 66.5876,37.9462 "/>
   <polygon id="_22589816" class="fil7" points="66.5876,37.9462 67.3355,38.2071 67.2833,38.3463 66.5354,38.0506 "/>
   <polygon id="_139372576" class="fil8" points="66.5354,38.0506 67.2833,38.3463 67.2138,38.468 66.5007,38.1549 "/>
   <polygon id="_139372008" class="fil9" points="66.5007,38.1549 67.2138,38.468 67.1441,38.6071 66.4485,38.2419 "/>
   <polygon id="_138219800" class="fil10" points="66.4485,38.2419 67.1441,38.6071 67.0572,38.7462 66.3963,38.3463 "/>
   <polygon id="_138219232" class="fil11" points="66.3963,38.3463 67.0572,38.7462 66.9703,38.868 66.3268,38.4332 "/>
   <polygon id="_138918416" class="fil12" points="66.3268,38.4332 66.9703,38.868 66.8659,39.0072 66.2746,38.5202 "/>
   <polygon id="_138918032" class="fil13" points="66.0485,38.7462 66.2746,38.5202 66.8659,39.0072 66.7615,39.1289 66.6571,39.2507 66.5354,39.3724 "/>
   <polygon id="_139224184" class="fil13" points="66.0485,38.7462 66.5354,39.3724 66.3963,39.4768 65.9616,38.8159 "/>
   <polygon id="_139223736" class="fil11" points="65.9616,38.8159 66.3963,39.4768 66.2746,39.581 65.8745,38.8854 "/>
   <polygon id="_137794600" class="fil14" points="65.8745,38.8854 66.2746,39.581 66.1355,39.6681 65.7876,38.955 "/>
   <polygon id="_137794032" class="fil9" points="65.7876,38.955 66.1355,39.6681 65.9789,39.7725 65.6832,39.0072 "/>
   <polygon id="_139497272" class="fil15" points="65.6832,39.0072 65.9789,39.7725 65.8398,39.842 65.5788,39.0594 "/>
   <polygon id="_139496704" class="fil7" points="65.5788,39.0594 65.8398,39.842 65.6832,39.9115 65.4745,39.1116 "/>
   <polygon id="_138407792" class="fil6" points="66.605,37.8419 66.6224,37.8071 67.3877,38.0853 67.3702,38.0853 "/>
   <polygon id="_138407200" class="fil16" points="66.8137,37.2158 67.3877,38.0506 67.3877,38.068 67.3877,38.0853 66.6224,37.8071 66.692,37.5984 66.7267,37.4766 "/>
   <polygon id="_137790176" class="fil17" points="66.5007,17.528 66.4659,17.4236 67.2311,17.1801 67.2658,17.3019 "/>
   <polygon id="_139347032" class="fil18" points="66.4659,17.4236 66.431,17.3192 67.1789,17.0409 67.2311,17.1801 "/>
   <polygon id="_139346768" class="fil19" points="66.431,17.3192 66.379,17.2323 67.1094,16.9018 67.1789,17.0409 "/>
   <polygon id="_139320472" class="fil20" points="66.379,17.2323 66.3441,17.1279 67.0398,16.7627 67.1094,16.9018 "/>
   <polygon id="_139320024" class="fil11" points="66.3441,17.1279 66.2746,17.0409 66.9528,16.641 67.0398,16.7627 "/>
   <polygon id="_139446856" class="fil21" points="66.2746,17.0409 66.2224,16.954 66.8659,16.5018 66.9528,16.641 "/>
   <polygon id="_139446288" class="fil22" points="66.2224,16.954 66.1528,16.867 66.7615,16.38 66.8659,16.5018 "/>
   <polygon id="_22587536" class="fil23" points="66.1528,16.867 66.0833,16.7801 66.6571,16.2583 66.7615,16.38 "/>
   <polygon id="_138347712" class="fil24" points="66.0833,16.7801 66.0136,16.6932 66.5354,16.1365 66.6571,16.2583 "/>
   <polygon id="_138347448" class="fil25" points="66.0136,16.6932 65.9441,16.6235 66.4137,16.0148 66.5354,16.1365 "/>
   <polygon id="_138346880" class="fil26" points="65.9441,16.6235 65.8572,16.554 66.2919,15.9104 66.4137,16.0148 "/>
   <polygon id="_138900096" class="fil27" points="65.8572,16.554 65.7701,16.4844 66.1528,15.8062 66.2919,15.9104 "/>
   <polygon id="_139084176" class="fil28" points="65.7701,16.4844 65.6659,16.4322 66.0136,15.7018 66.1528,15.8062 "/>
   <polygon id="_139083624" class="fil29" points="65.6659,16.4322 65.5788,16.3627 65.8745,15.6147 66.0136,15.7018 "/>
   <polygon id="_138251736" class="fil30" points="65.5788,16.3627 65.4745,16.3105 65.7181,15.5278 65.8745,15.6147 "/>
   <polygon id="_138251168" class="fil31" points="65.4745,16.3105 65.3702,16.2583 65.5615,15.4583 65.7181,15.5278 "/>
   <polygon id="_139486544" class="fil32" points="66.6224,17.841 66.5181,17.5801 66.5007,17.528 67.2485,17.2497 67.2658,17.2844 67.3007,17.3541 67.3007,17.3888 "/>
   <polygon id="_139485992" class="fil33" points="66.6224,17.841 67.3007,17.3888 67.318,17.4236 66.6571,17.9801 "/>
   <polygon id="_138451888" class="fil33" points="66.6571,17.9801 67.318,17.4236 67.3355,17.4583 66.7093,18.1367 "/>
   <polygon id="_139314744" class="fil34" points="66.7093,18.1367 67.3355,17.4583 66.7789,18.2931 "/>
   <polygon id="_139314376" class="fil35" points="24.8815,17.528 24.1162,17.3019 24.1509,17.1801 24.9162,17.4236 "/>
   <polygon id="_139226512" class="fil36" points="24.9162,17.4236 24.1509,17.1801 24.2031,17.0409 24.951,17.3192 "/>
   <polygon id="_138355904" class="fil37" points="24.951,17.3192 24.2031,17.0409 24.2726,16.9018 25.0032,17.2323 "/>
   <polygon id="_138355656" class="fil38" points="25.0032,17.2323 24.2726,16.9018 24.3423,16.7627 25.0554,17.1279 "/>
   <polygon id="_139080168" class="fil39" points="25.0554,17.1279 24.3423,16.7627 24.4292,16.641 25.1075,17.0409 "/>
   <polygon id="_139079736" class="fil40" points="25.1075,17.0409 24.4292,16.641 24.5162,16.5018 25.1596,16.954 "/>
   <polygon id="_138597712" class="fil41" points="25.1596,16.954 24.5162,16.5018 24.6205,16.38 25.2293,16.867 "/>
   <polygon id="_138389136" class="fil42" points="25.2293,16.867 24.6205,16.38 24.7249,16.2583 25.2989,16.7801 "/>
   <polygon id="_138388752" class="fil43" points="25.4553,16.6235 25.2989,16.7801 24.7249,16.2583 24.9684,16.0148 "/>
   <polygon id="_139322128" class="fil43" points="25.4553,16.6235 24.9684,16.0148 25.0901,15.9104 25.5249,16.554 "/>
   <polygon id="_139449440" class="fil44" points="25.5249,16.554 25.0901,15.9104 25.2293,15.8062 25.6119,16.4844 "/>
   <polygon id="_139449192" class="fil45" points="25.6119,16.4844 25.2293,15.8062 25.3684,15.7018 25.7163,16.4322 "/>
   <polygon id="_137821416" class="fil46" points="25.7163,16.4322 25.3684,15.7018 25.5075,15.6147 25.8032,16.3627 "/>
   <path id="_137821048" class="fil47" d="M25.8032 16.3627l-0.2957 -0.748c0.058,-0.0231 0.1102,-0.052 0.1566,-0.0869l0.2435 0.7827 -0.1044 0.0522z"/>
   <polygon id="_137800120" class="fil48" points="25.9076,16.3105 25.6641,15.5278 25.8205,15.4583 26.0119,16.2583 "/>
   <polygon id="_139105400" class="fil49" points="24.8815,17.528 24.864,17.5801 24.1162,17.2844 24.1335,17.2497 "/>
   <polygon id="_139104952" class="fil50" points="24.864,17.5801 24.8119,17.7366 24.0813,17.3541 24.1162,17.2844 "/>
   <polygon id="_138681272" class="fil50" points="24.8119,17.7366 24.7771,17.841 24.7249,17.9801 24.064,17.4236 24.064,17.3888 24.0813,17.3541 "/>
   <polygon id="_138680720" class="fil51" points="24.7249,17.9801 24.6727,18.1367 24.0466,17.4583 24.064,17.4236 "/>
   <polygon id="_137805584" class="fil52" points="24.6727,18.1367 24.6205,18.2931 24.0466,17.4583 "/>
   <polygon id="_138509504" class="fil53" points="24.9857,37.8419 25.0206,37.9462 24.2726,38.2071 24.2206,38.068 "/>
   <polygon id="_138509056" class="fil54" points="25.0206,37.9462 25.0727,38.0506 24.3248,38.3463 24.2726,38.2071 "/>
   <polygon id="_22612360" class="fil55" points="25.0727,38.0506 25.1075,38.1549 24.377,38.468 24.3248,38.3463 "/>
   <polygon id="_138320920" class="fil56" points="25.1075,38.1549 25.1596,38.2419 24.464,38.6071 24.377,38.468 "/>
   <polygon id="_138248800" class="fil57" points="25.1596,38.2419 25.2118,38.3463 24.5336,38.7462 24.464,38.6071 "/>
   <polygon id="_138248536" class="fil58" points="25.2118,38.3463 25.2814,38.4332 24.638,38.868 24.5336,38.7462 "/>
   <polygon id="_138315936" class="fil59" points="25.2814,38.4332 25.3336,38.5202 24.7249,39.0072 24.638,38.868 "/>
   <polygon id="_139355584" class="fil60" points="25.3336,38.5202 25.4031,38.5898 24.8293,39.1289 24.7249,39.0072 "/>
   <polygon id="_138238296" class="fil61" points="25.4031,38.5898 25.4902,38.6767 24.951,39.2507 24.8293,39.1289 "/>
   <polygon id="_138238048" class="fil62" points="25.4902,38.6767 25.5597,38.7462 25.0727,39.3724 24.951,39.2507 "/>
   <polygon id="_138564224" class="fil63" points="25.5597,38.7462 25.6467,38.8159 25.1945,39.4768 25.0727,39.3724 "/>
   <polygon id="_139494576" class="fil64" points="25.6467,38.8159 25.7336,38.8854 25.3336,39.581 25.1945,39.4768 "/>
   <polygon id="_138351848" class="fil65" points="25.7336,38.8854 25.8205,38.955 25.4728,39.6681 25.3336,39.581 "/>
   <polygon id="_138351584" class="fil66" points="25.8205,38.955 25.9249,39.0072 25.6119,39.7725 25.4728,39.6681 "/>
   <polygon id="_138343016" class="fil67" points="25.9249,39.0072 26.0293,39.0594 25.7685,39.842 25.6119,39.7725 "/>
   <polygon id="_139305752" class="fil68" points="26.0293,39.0594 26.1337,39.1116 25.9249,39.9115 25.7685,39.842 "/>
   <polygon id="_138371640" class="fil69" points="24.9857,37.8419 24.2379,38.1202 24.2379,38.1028 24.9857,37.8071 "/>
   <polygon id="_138371376" class="fil70" points="24.9857,37.8071 24.2379,38.1028 24.2206,38.0853 24.9337,37.6854 "/>
   <polygon id="_138868424" class="fil71" points="24.9337,37.6854 24.2206,38.0853 24.2206,38.068 24.8988,37.5984 "/>
   <polygon id="_139108624" class="fil72" points="24.8988,37.5984 24.2206,38.068 24.2031,38.068 24.864,37.4766 "/>
   <polygon id="_139108056" class="fil73" points="24.864,37.4766 24.2031,38.068 24.2031,38.0506 24.8293,37.3549 "/>
   <polygon id="_139124032" class="fil74" points="24.8293,37.3549 24.2031,38.0506 24.7771,37.2158 "/>
   <polygon id="_139306912" class="fil68" points="59.596,44.2769 59.7178,44.2247 60.0481,44.9727 59.8743,45.0422 "/>
   <polygon id="_138603320" class="fil75" points="59.7178,44.2247 59.8221,44.1725 60.2047,44.8683 60.0481,44.9727 "/>
   <polygon id="_138602872" class="fil14" points="59.8221,44.1725 59.9264,44.103 60.3613,44.7639 60.2047,44.8683 "/>
   <polygon id="_137820456" class="fil12" points="59.9264,44.103 60.0134,44.0161 60.5004,44.6421 60.3613,44.7639 "/>
   <polygon id="_21188448" class="fil13" points="60.1874,43.8073 60.7612,44.3291 60.6395,44.4857 60.5004,44.6421 60.0134,44.0161 "/>
   <polygon id="_137814280" class="fil11" points="60.1874,43.8073 60.2743,43.7031 60.883,44.1725 60.7612,44.3291 "/>
   <polygon id="_137813896" class="fil10" points="60.2743,43.7031 60.3438,43.5639 60.9873,43.9813 60.883,44.1725 "/>
   <polygon id="_138919800" class="fil75" points="60.3438,43.5639 60.396,43.4421 61.0917,43.79 60.9873,43.9813 "/>
   <polygon id="_138370472" class="fil76" points="60.396,43.4421 60.4655,43.303 61.1786,43.5987 61.0917,43.79 "/>
   <polygon id="_139190920" class="fil19" points="60.4655,43.303 60.5177,43.1464 61.2657,43.3899 61.1786,43.5987 "/>
   <polygon id="_139357112" class="fil77" points="60.5177,43.1464 60.5526,42.99 61.3352,43.1813 61.2657,43.3899 "/>
   <polygon id="_137792440" class="fil78" points="60.5526,42.99 60.5873,42.8161 61.3874,42.9725 61.3352,43.1813 "/>
   <polygon id="_137791888" class="fil79" points="60.5873,42.8161 60.6221,42.6421 61.4396,42.7464 61.3874,42.9725 "/>
   <polygon id="_22594712" class="fil80" points="60.6221,42.6421 60.6395,42.5551 61.4569,42.6421 61.4396,42.7464 "/>
   <polygon id="_22594448" class="fil81" points="60.6395,42.5551 60.657,42.4682 61.4743,42.5204 61.4569,42.6421 "/>
   <polygon id="_137811024" class="fil82" points="60.657,42.4682 60.657,42.3812 61.4743,42.416 61.4743,42.5204 "/>
   <polygon id="_138243256" class="fil83" points="60.657,42.3812 60.6743,42.2769 61.4918,42.3116 61.4743,42.416 "/>
   <polygon id="_137682576" class="fil84" points="59.77,10.3276 59.9264,10.4145 59.6134,11.1451 59.4916,11.0929 "/>
   <polygon id="_138259496" class="fil85" points="59.9264,10.4145 60.1003,10.5016 59.7178,11.2147 59.6134,11.1451 "/>
   <polygon id="_138259048" class="fil86" points="60.1003,10.5016 60.2396,10.6233 59.8047,11.2842 59.7178,11.2147 "/>
   <polygon id="_138935072" class="fil87" points="60.2396,10.6233 60.396,10.7451 59.909,11.3711 59.8047,11.2842 "/>
   <polygon id="_138934808" class="fil88" points="60.5352,10.8841 59.9961,11.4581 59.909,11.3711 60.396,10.7451 "/>
   <polygon id="_139206152" class="fil64" points="59.9961,11.4581 60.5352,10.8841 60.657,11.0407 60.083,11.5625 "/>
   <polygon id="_138904016" class="fil21" points="60.083,11.5625 60.657,11.0407 60.7787,11.2147 60.1525,11.6843 "/>
   <polygon id="_138903448" class="fil10" points="60.1525,11.6843 60.7787,11.2147 60.883,11.3886 60.2221,11.806 "/>
   <polygon id="_22571432" class="fil7" points="60.2221,11.806 60.883,11.3886 60.9873,11.5799 60.2917,11.9451 "/>
   <polygon id="_139067808" class="fil89" points="60.2917,11.9451 60.9873,11.5799 61.0744,11.7885 60.3438,12.0842 "/>
   <polygon id="_138224416" class="fil34" points="60.3438,12.0842 61.0744,11.7885 61.1439,11.9799 60.396,12.2408 "/>
   <polygon id="_138224152" class="fil90" points="60.396,12.2408 61.1439,11.9799 61.2135,12.1886 60.4482,12.3973 "/>
   <polygon id="_137747960" class="fil91" points="60.4482,12.3973 61.2135,12.1886 61.283,12.4147 60.483,12.5538 "/>
   <polygon id="_139424240" class="fil92" points="60.483,12.5538 61.283,12.4147 61.3179,12.6233 60.5177,12.7277 "/>
   <polygon id="_139204344" class="fil93" points="60.5177,12.7277 61.3179,12.6233 61.3352,12.7451 60.5352,12.8147 "/>
   <polygon id="_138613072" class="fil94" points="60.5352,12.8147 61.3352,12.7451 61.3526,12.8495 60.5352,12.919 "/>
   <polygon id="_138332768" class="fil95" points="60.5352,12.919 61.3526,12.8495 61.37,12.9538 60.5526,13.006 "/>
   <polygon id="_138353192" class="fil96" points="60.5526,13.006 61.37,12.9538 61.3874,13.0756 60.5526,13.0929 "/>
   <polygon id="_138352776" class="fil6" points="59.596,44.2769 59.8743,45.0422 59.7351,45.0944 59.4916,44.3291 "/>
   <polygon id="_22605088" class="fil16" points="59.4916,44.3291 59.7351,45.0944 59.596,45.1466 59.3699,44.364 "/>
   <polygon id="_139323072" class="fil97" points="59.3699,44.364 59.596,45.1466 59.4743,45.1813 59.2655,44.3987 "/>
   <polygon id="_139322808" class="fil77" points="59.2655,44.3987 59.4743,45.1813 59.3525,45.2161 59.1438,44.4335 "/>
   <polygon id="_139081240" class="fil18" points="59.1438,44.4335 59.3525,45.2161 59.1264,45.2857 58.9351,44.4857 "/>
   <polygon id="_138604744" class="fil98" points="58.9351,44.4857 59.1264,45.2857 58.9176,45.3379 58.5351,45.4423 58.3438,44.6421 58.5351,44.59 "/>
   <polygon id="_138346128" class="fil18" points="58.135,44.6943 58.3438,44.6421 58.5351,45.4423 58.3438,45.4945 "/>
   <polygon id="_139310432" class="fil77" points="57.9264,44.7639 58.135,44.6943 58.3438,45.4945 58.1699,45.5465 "/>
   <polygon id="_137810088" class="fil99" points="59.77,10.3276 59.4916,11.0929 59.3699,11.0581 59.6134,10.2755 "/>
   <polygon id="_138198840" class="fil73" points="59.6134,10.2755 59.3699,11.0581 59.2655,11.0232 59.4916,10.2406 "/>
   <polygon id="_138198456" class="fil100" points="59.4916,10.2406 59.2655,11.0232 59.1438,10.9712 59.3699,10.1884 "/>
   <polygon id="_138912192" class="fil101" points="59.3699,10.1884 59.1438,10.9712 59.0395,10.9537 59.2482,10.1537 "/>
   <polygon id="_22570768" class="fil102" points="59.2482,10.1537 59.0395,10.9537 58.8307,10.8841 59.022,10.1015 "/>
   <polygon id="_22570504" class="fil103" points="59.022,10.1015 58.8307,10.8841 58.6221,10.832 58.8134,10.0493 "/>
   <polygon id="_21050224" class="fil104" points="58.6221,10.832 58.4307,10.7798 58.6221,9.9971 58.8134,10.0493 "/>
   <polygon id="_137819488" class="fil105" points="58.4307,10.7798 58.2394,10.7277 58.4307,9.9449 58.6221,9.9971 "/>
   <polygon id="_138349264" class="fil106" points="58.2394,10.7277 58.0308,10.6755 58.2394,9.8929 58.4307,9.9449 "/>
   <polygon id="_138345440" class="fil101" points="58.0308,10.6755 57.822,10.6058 58.0481,9.8407 58.2394,9.8929 "/>
   <polygon id="_138333568" class="fil107" points="65.6832,39.9115 61.7353,40.6593 61.0222,39.9464 65.4745,39.1116 "/>
   <polygon id="_138344872" class="fil108" points="65.3702,16.2583 60.9004,15.4235 61.6309,14.7279 65.5615,15.4583 "/>
   <polygon id="_138348736" class="fil109" points="31.6296,10.3276 31.8904,11.0929 31.786,11.1451 31.4556,10.4145 "/>
   <polygon id="_139238856" class="fil110" points="31.4556,10.4145 31.786,11.1451 31.6818,11.2147 31.2817,10.5016 "/>
   <path id="_139386984" class="fil111" d="M31.2817 10.5016l0.4001 0.7131 -0.1044 0.0695 -0.4523 -0.6609c0.058,-0.0348 0.1102,-0.0754 0.1566,-0.1217z"/>
   <polygon id="_139386400" class="fil43" points="31.1251,10.6233 31.5774,11.2842 31.473,11.3711 30.986,10.7451 "/>
   <polygon id="_139386016" class="fil43" points="30.8469,10.8841 30.986,10.7451 31.473,11.3711 31.3861,11.4581 "/>
   <polygon id="_138615664" class="fil112" points="31.3861,11.4581 31.2991,11.5625 30.7252,11.0407 30.8469,10.8841 "/>
   <polygon id="_138968320" class="fil45" points="31.2991,11.5625 31.2295,11.6843 30.6035,11.2147 30.7252,11.0407 "/>
   <polygon id="_138235536" class="fil110" points="31.2295,11.6843 31.16,11.806 30.4991,11.3886 30.6035,11.2147 "/>
   <polygon id="_139076312" class="fil113" points="31.16,11.806 31.0904,11.9451 30.3947,11.5799 30.4991,11.3886 "/>
   <polygon id="_139458520" class="fil114" points="31.0904,11.9451 31.0382,12.0842 30.3078,11.7885 30.3947,11.5799 "/>
   <polygon id="_138934184" class="fil50" points="31.0382,12.0842 30.986,12.2408 30.2382,11.9799 30.3078,11.7885 "/>
   <polygon id="_138397688" class="fil115" points="30.986,12.2408 30.9338,12.3973 30.1686,12.1886 30.2382,11.9799 "/>
   <polygon id="_139235848" class="fil116" points="30.9338,12.3973 30.8991,12.5538 30.099,12.4147 30.1686,12.1886 "/>
   <polygon id="_138517504" class="fil117" points="30.8991,12.5538 30.8643,12.7277 30.0643,12.6233 30.099,12.4147 "/>
   <polygon id="_138702216" class="fil118" points="30.8643,12.7277 30.8643,12.8147 30.0468,12.7451 30.0643,12.6233 "/>
   <polygon id="_137871184" class="fil119" points="30.8643,12.8147 30.8469,12.919 30.0295,12.8495 30.0468,12.7451 "/>
   <polygon id="_139231560" class="fil120" points="30.8469,12.919 30.8294,13.006 30.0121,12.9538 30.0295,12.8495 "/>
   <polygon id="_139094560" class="fil121" points="30.8294,13.006 30.8294,13.0929 29.9946,13.0756 30.0121,12.9538 "/>
   <polygon id="_139095432" class="fil49" points="31.6296,10.3276 31.7687,10.2755 32.0121,11.0581 31.8904,11.0929 "/>
   <polygon id="_138387888" class="fil51" points="31.7687,10.2755 31.8904,10.2406 32.1339,11.0232 32.0121,11.0581 "/>
   <polygon id="_137793392" class="fil35" points="31.8904,10.2406 32.0121,10.1884 32.2383,10.9712 32.1339,11.0232 "/>
   <polygon id="_138456392" class="fil122" points="32.0121,10.1884 32.1339,10.1537 32.3426,10.9537 32.2383,10.9712 "/>
   <polygon id="_138200536" class="fil123" points="32.1339,10.1537 32.36,10.1015 32.5513,10.8841 32.3426,10.9537 "/>
   <polygon id="_138200272" class="fil124" points="32.36,10.1015 32.5688,10.0493 32.7601,10.832 32.5513,10.8841 "/>
   <polygon id="_139140984" class="fil125" points="32.7601,10.832 32.5688,10.0493 32.7601,9.9971 32.9513,10.7798 "/>
   <polygon id="_138234760" class="fil124" points="32.9513,10.7798 32.7601,9.9971 32.9513,9.9449 33.1426,10.7277 "/>
   <polygon id="_138234376" class="fil123" points="33.1426,10.7277 32.9513,9.9449 33.1426,9.8929 33.3514,10.6755 "/>
   <polygon id="_139100680" class="fil122" points="33.3514,10.6755 33.1426,9.8929 33.3687,9.8232 33.56,10.6058 "/>
   <polygon id="_138416704" class="fil126" points="31.9948,44.2769 31.7339,45.0422 31.56,44.9727 31.8904,44.2247 "/>
   <polygon id="_138437288" class="fil12" points="31.8904,44.2247 31.56,44.9727 31.4034,44.8683 31.786,44.1725 "/>
   <polygon id="_138901128" class="fil127" points="31.786,44.1725 31.4034,44.8683 31.2469,44.7639 31.6818,44.103 "/>
   <polygon id="_138900696" class="fil128" points="31.6818,44.103 31.2469,44.7639 31.1078,44.6421 31.5947,44.0161 "/>
   <polygon id="_138511056" class="fil129" points="31.5947,44.0161 31.1078,44.6421 30.9687,44.4857 31.5078,43.9117 "/>
   <polygon id="_138516400" class="fil130" points="31.5078,43.9117 30.9687,44.4857 30.8294,44.3291 31.4208,43.8073 "/>
   <polygon id="_139142768" class="fil131" points="31.4208,43.8073 30.8294,44.3291 30.7252,44.1725 31.3339,43.7031 "/>
   <polygon id="_138902224" class="fil132" points="31.3339,43.7031 30.7252,44.1725 30.6035,43.9813 31.2643,43.5639 "/>
   <polygon id="_21180768" class="fil133" points="31.2643,43.5639 30.6035,43.9813 30.5164,43.79 31.2122,43.4421 "/>
   <polygon id="_139066800" class="fil134" points="31.2122,43.4421 30.5164,43.79 30.4295,43.5987 31.1426,43.303 "/>
   <polygon id="_139309776" class="fil70" points="31.1426,43.303 30.4295,43.5987 30.3425,43.3899 31.0904,43.1464 "/>
   <polygon id="_139309720" class="fil135" points="31.0904,43.1464 30.3425,43.3899 30.2729,43.1813 31.0556,42.99 "/>
   <polygon id="_138350552" class="fil136" points="31.0556,42.99 30.2729,43.1813 30.2208,42.9725 31.0209,42.8161 "/>
   <polygon id="_137704440" class="fil137" points="31.0209,42.8161 30.2208,42.9725 30.1686,42.7464 30.986,42.6421 "/>
   <polygon id="_137732048" class="fil138" points="30.986,42.6421 30.1686,42.7464 30.1512,42.6421 30.9687,42.5551 "/>
   <polygon id="_137731616" class="fil139" points="30.9687,42.5551 30.1512,42.6421 30.1339,42.5204 30.9512,42.4682 "/>
   <polygon id="_22422680" class="fil140" points="30.9512,42.4682 30.1339,42.5204 30.1164,42.416 30.9512,42.3812 "/>
   <polygon id="_139038432" class="fil141" points="30.9512,42.3812 30.1164,42.416 30.1164,42.3116 30.9338,42.2769 "/>
   <polygon id="_138686584" class="fil78" points="31.9948,44.2769 32.1165,44.3291 31.873,45.0944 31.7339,45.0422 "/>
   <polygon id="_139083080" class="fil33" points="32.1165,44.3291 32.2383,44.364 32.0121,45.1466 31.873,45.0944 "/>
   <polygon id="_138948360" class="fil142" points="32.2383,44.364 32.3426,44.3987 32.1339,45.1813 32.0121,45.1466 "/>
   <polygon id="_139313040" class="fil17" points="32.3426,44.3987 32.4644,44.4335 32.2556,45.2161 32.1339,45.1813 "/>
   <polygon id="_138508632" class="fil80" points="32.4644,44.4335 32.673,44.4857 32.4644,45.2857 32.2556,45.2161 "/>
   <polygon id="_138907816" class="fil81" points="32.673,44.4857 32.8644,44.5379 32.673,45.3379 32.4644,45.2857 "/>
   <polygon id="_139097408" class="fil82" points="33.0557,44.59 32.8818,45.3901 32.673,45.3379 32.8644,44.5379 "/>
   <polygon id="_139461304" class="fil81" points="33.2644,44.6421 33.0731,45.4423 32.8818,45.3901 33.0557,44.59 "/>
   <polygon id="_139205400" class="fil143" points="33.4731,44.6943 33.247,45.4945 33.0731,45.4423 33.2644,44.6421 "/>
   <polygon id="_139199760" class="fil17" points="33.6818,44.7639 33.4731,45.5465 33.247,45.4945 33.4731,44.6943 "/>
   <polygon id="_138905192" class="fil143" points="60.6743,42.2769 61.0222,39.9464 61.7353,40.6593 61.4918,42.3638 "/>
   <polygon id="_138904760" class="fil144" points="61.37,13.006 61.6309,14.7279 60.9004,15.4235 60.5526,13.0929 "/>
   <polygon id="_138931856" class="fil145" points="30.4817,15.4235 26.0119,16.2583 25.8205,15.4583 29.7512,14.7279 "/>
   <polygon id="_137862352" class="fil146" points="26.1337,39.1116 30.586,39.9464 29.8729,40.6593 25.9249,39.9115 "/>
   <polygon id="_139093864" class="fil147" points="30.8294,13.0929 30.4817,15.4235 29.7512,14.7279 30.0121,13.006 "/>
   <polygon id="_139093480" class="fil18" points="56.1697,45.2508 56.5002,45.1639 56.6742,45.1118 56.8132,45.077 56.9698,45.0249 57.1263,44.99 57.2655,44.9553 57.4046,44.9031 57.6829,44.8334 57.8046,44.7987 57.9264,44.7639 58.1699,45.5465 57.9959,45.5814 57.8742,45.6162 57.022,45.8597 56.8654,45.9119 56.6915,45.9466 56.0133,46.1379 55.8393,45.3552 56.0133,45.303 "/>
   <polygon id="_139137440" class="fil18" points="55.8393,45.3552 56.0133,46.1379 54.5349,46.5379 54.361,45.7379 54.5523,45.7031 "/>
   <polygon id="_139137176" class="fil98" points="53.9609,45.8422 54.361,45.7379 54.5349,46.5379 54.3261,46.5901 54.1349,46.6423 "/>
   <polygon id="_138650288" class="fil98" points="52.7435,46.1553 53.9609,45.8422 54.1349,46.6423 53.1087,46.9031 52.9001,46.938 "/>
   <polygon id="_138650024" class="fil32" points="52.1348,46.2944 52.3435,46.2422 52.7435,46.1553 52.9001,46.938 52.0478,47.1466 51.8392,47.1814 51.7174,46.3813 51.9261,46.3466 "/>
   <polygon id="_139232936" class="fil33" points="51.7174,46.3813 51.8392,47.1814 51.6304,47.2336 51.4913,46.4335 "/>
   <polygon id="_139232672" class="fil33" points="51.4913,46.4335 51.6304,47.2336 51.4218,47.2858 51.1956,47.3205 50.9869,47.3727 50.8651,46.5728 51.0739,46.5206 51.2825,46.4857 "/>
   <polygon id="_139101400" class="fil34" points="50.8651,46.5728 50.9869,47.3727 50.7609,47.4076 50.5521,47.4598 50.3435,47.4945 50.2391,46.6945 50.4477,46.6423 50.6565,46.6075 "/>
   <polygon id="_138449656" class="fil142" points="50.2391,46.6945 50.3435,47.4945 50.1173,47.5293 49.9086,47.5815 49.6999,47.6162 49.5955,46.7987 49.8043,46.764 50.0303,46.7292 "/>
   <polygon id="_139082096" class="fil17" points="49.5955,46.7987 49.6999,47.6162 49.4738,47.651 49.2652,47.6858 49.1781,46.8684 49.3869,46.8336 "/>
   <polygon id="_138550920" class="fil107" points="48.8477,47.7553 48.7781,46.938 48.9695,46.9031 49.1781,46.8684 49.2652,47.6858 49.0564,47.7206 "/>
   <polygon id="_139068912" class="fil80" points="48.3607,46.9902 48.7781,46.938 48.8477,47.7553 48.4303,47.8075 "/>
   <polygon id="_22609464" class="fil143" points="47.9607,47.0424 48.3607,46.9902 48.4303,47.8075 48.0129,47.8597 "/>
   <polygon id="_139343576" class="fil81" points="47.5607,47.0944 47.9607,47.0424 48.0129,47.8597 47.8042,47.8772 47.6129,47.8945 "/>
   <polygon id="_139078912" class="fil82" points="47.5607,47.0944 47.6129,47.8945 47.4041,47.9292 47.3694,47.1119 "/>
   <polygon id="_139078664" class="fil148" points="47.3694,47.1119 47.4041,47.9292 47.2128,47.9467 47.1781,47.1293 "/>
   <polygon id="_139564840" class="fil149" points="46.7954,47.1466 47.1781,47.1293 47.2128,47.9467 46.8128,47.9641 "/>
   <polygon id="_139203560" class="fil150" points="46.7954,47.1466 46.8128,47.9641 46.6215,47.9814 46.6041,47.1641 "/>
   <polygon id="_138910848" class="fil150" points="46.6041,47.1641 46.6215,47.9814 46.4302,47.9814 46.4128,47.1814 "/>
   <polygon id="_21951424" class="fil146" points="46.4128,47.1814 46.4302,47.9814 46.2389,47.9989 46.2389,47.1814 "/>
   <polygon id="_139092256" class="fil151" points="46.2389,47.1814 46.2389,47.9989 46.0476,47.9989 46.0476,47.1814 "/>
   <polygon id="_139325720" class="fil152" points="46.0476,47.1814 46.0476,47.9989 45.8737,47.9989 45.8737,47.1814 "/>
   <polygon id="_138231352" class="fil152" points="45.7345,47.1814 45.8737,47.1814 45.8737,47.9989 45.7345,47.9989 "/>
   <polygon id="_138231088" class="fil153" points="30.586,39.9464 30.9338,42.2769 30.1164,42.3638 29.8729,40.6593 "/>
   <polygon id="_138230592" class="fil154" points="45.7693,8.1884 45.6302,8.1884 45.6127,7.3884 45.7693,7.3884 "/>
   <polygon id="_138230072" class="fil106" points="58.0481,9.8407 57.822,10.6058 57.7003,10.5711 57.5612,10.5363 57.4394,10.5016 57.6307,9.7189 57.7698,9.7537 "/>
   <polygon id="_138612064" class="fil155" points="57.2133,9.5972 57.3524,9.6319 57.4916,9.6841 57.6307,9.7189 57.4394,10.5016 57.0045,10.3798 56.8654,10.345 57.0567,9.5624 "/>
   <polygon id="_138703680" class="fil155" points="56.4307,9.3884 56.5871,9.4233 56.7437,9.4755 57.0567,9.5624 56.8654,10.345 56.7089,10.3103 56.5524,10.2581 56.3958,10.2059 56.2394,10.1711 56.0655,10.1189 56.2567,9.3362 "/>
   <polygon id="_139501320" class="fil156" points="55.7176,10.032 55.5437,9.9798 55.7349,9.1972 56.2567,9.3362 56.0655,10.1189 "/>
   <polygon id="_138454136" class="fil157" points="55.5437,9.9798 55.3697,9.9276 55.561,9.145 55.7349,9.1972 "/>
   <polygon id="_137731472" class="fil158" points="55.0045,9.8407 55.1784,9.0406 55.3697,9.0928 55.561,9.145 55.3697,9.9276 "/>
   <polygon id="_137730784" class="fil159" points="55.0045,9.8407 54.8132,9.7885 55.0045,8.9884 55.1784,9.0406 "/>
   <polygon id="_138514008" class="fil159" points="54.4305,9.6841 54.6045,8.8841 55.0045,8.9884 54.8132,9.7885 "/>
   <polygon id="_22611640" class="fil105" points="54.048,9.5797 54.2219,8.7797 54.6045,8.8841 54.4305,9.6841 "/>
   <polygon id="_22611056" class="fil104" points="54.048,9.5797 53.8567,9.5275 54.0131,8.7449 54.2219,8.7797 "/>
   <polygon id="_138398792" class="fil160" points="53.4566,9.4233 53.6132,8.6406 54.0131,8.7449 53.8567,9.5275 "/>
   <polygon id="_138398544" class="fil161" points="53.0566,9.3362 53.2131,8.5363 53.6132,8.6406 53.4566,9.4233 "/>
   <polygon id="_139317960" class="fil162" points="53.0566,9.3362 52.8479,9.2841 53.0044,8.4841 53.2131,8.5363 "/>
   <polygon id="_137783952" class="fil136" points="53.0044,8.4841 52.8479,9.2841 52.6391,9.2319 52.4305,9.1798 52.587,8.3797 "/>
   <polygon id="_137802456" class="fil163" points="52.4305,9.1798 52.2217,9.1276 52.361,8.3275 52.587,8.3797 "/>
   <polygon id="_21183824" class="fil164" points="52.2217,9.1276 52.0131,9.0928 52.1522,8.2928 52.361,8.3275 "/>
   <polygon id="_138455648" class="fil165" points="52.0131,9.0928 51.8043,9.0406 51.9435,8.2406 52.1522,8.2928 "/>
   <polygon id="_21043768" class="fil166" points="51.8043,9.0406 51.5957,8.9884 51.7348,8.1884 51.9435,8.2406 "/>
   <polygon id="_138739472" class="fil167" points="51.5957,8.9884 51.3869,8.9537 51.5087,8.1362 51.7348,8.1884 "/>
   <polygon id="_138739416" class="fil168" points="51.3869,8.9537 51.1783,8.9015 51.3,8.1014 51.5087,8.1362 "/>
   <polygon id="_138953472" class="fil169" points="51.1783,8.9015 50.9695,8.8493 51.0912,8.0493 51.3,8.1014 "/>
   <polygon id="_138922304" class="fil170" points="50.9695,8.8493 50.7609,8.8145 50.8651,8.0145 51.0912,8.0493 "/>
   <polygon id="_138236824" class="fil171" points="50.7609,8.8145 50.5521,8.7624 50.6565,7.9623 50.8651,8.0145 "/>
   <polygon id="_138199896" class="fil108" points="50.5521,8.7624 50.326,8.7275 50.4477,7.9276 50.6565,7.9623 "/>
   <polygon id="_138198120" class="fil137" points="50.326,8.7275 50.1173,8.6927 50.2217,7.8754 50.4477,7.9276 "/>
   <polygon id="_138373208" class="fil172" points="50.1173,8.6927 49.9086,8.6406 50.0129,7.8405 50.2217,7.8754 "/>
   <polygon id="_138372960" class="fil173" points="49.8043,7.8058 50.0129,7.8405 49.9086,8.6406 49.6999,8.6058 "/>
   <polygon id="_139426320" class="fil174" points="49.6999,8.6058 49.4912,8.571 49.5782,7.771 49.8043,7.8058 "/>
   <polygon id="_139373408" class="fil175" points="49.4912,8.571 49.2825,8.5363 49.3694,7.7362 49.5782,7.771 "/>
   <polygon id="_138611040" class="fil176" points="49.2825,8.5363 49.0737,8.5014 49.1608,7.7014 49.3694,7.7362 "/>
   <polygon id="_139195248" class="fil177" points="49.0737,8.5014 48.8651,8.4667 48.952,7.6666 49.1608,7.7014 "/>
   <polygon id="_139195184" class="fil153" points="48.8651,8.4667 48.6563,8.4319 48.726,7.6319 48.952,7.6666 "/>
   <polygon id="_21044464" class="fil178" points="48.6563,8.4319 48.4477,8.4145 48.5172,7.5971 48.726,7.6319 "/>
   <polygon id="_20712680" class="fil139" points="48.4477,8.4145 48.2564,8.3797 48.3086,7.5797 48.5172,7.5971 "/>
   <polygon id="_139207136" class="fil179" points="48.2564,8.3797 48.0476,8.3623 48.0998,7.5449 48.3086,7.5797 "/>
   <polygon id="_139206768" class="fil180" points="48.0476,8.3623 47.839,8.3275 47.9085,7.5275 48.0998,7.5449 "/>
   <polygon id="_138398200" class="fil181" points="47.839,8.3275 47.6476,8.3101 47.6998,7.4927 47.9085,7.5275 "/>
   <polygon id="_139189528" class="fil182" points="47.6476,8.3101 47.4563,8.2928 47.4911,7.4753 47.6998,7.4927 "/>
   <polygon id="_138325712" class="fil141" points="47.4563,8.2928 47.2477,8.2753 47.2998,7.458 47.4911,7.4753 "/>
   <polygon id="_139237424" class="fil183" points="47.2477,8.2753 47.0564,8.2579 47.0911,7.4405 47.2998,7.458 "/>
   <polygon id="_139237056" class="fil184" points="47.0564,8.2579 46.865,8.2406 46.8998,7.4231 47.0911,7.4405 "/>
   <polygon id="_138315096" class="fil185" points="46.865,8.2406 46.6737,8.2232 46.7085,7.4058 46.8998,7.4231 "/>
   <polygon id="_138375416" class="fil186" points="46.6737,8.2232 46.4824,8.2058 46.5172,7.4058 46.7085,7.4058 "/>
   <polygon id="_139102112" class="fil187" points="46.4824,8.2058 46.3085,8.2058 46.3258,7.3884 46.5172,7.4058 "/>
   <polygon id="_139116232" class="fil3" points="46.3085,8.2058 46.1172,8.2058 46.1345,7.3884 46.3258,7.3884 "/>
   <polygon id="_138703136" class="fil188" points="46.1172,8.2058 45.9432,8.1884 45.9432,7.3884 46.1345,7.3884 "/>
   <polygon id="_139313720" class="fil189" points="45.9432,8.1884 45.7693,8.1884 45.7693,7.3884 45.9432,7.3884 "/>
   <polygon id="_138512568" class="fil123" points="33.56,10.6058 33.3687,9.8232 33.4905,9.7885 33.6818,10.5711 "/>
   <polygon id="_138512128" class="fil123" points="33.8905,9.6841 34.0296,9.6319 34.1687,9.5972 34.3253,9.5624 34.6383,9.4755 34.8297,10.2581 34.6732,10.3103 34.5166,10.345 34.2209,10.432 34.0818,10.4667 33.6818,10.5711 33.4905,9.7885 33.6122,9.7537 33.7513,9.7189 "/>
   <polygon id="_138373632" class="fil123" points="35.1253,9.3362 35.2992,9.2841 35.4731,9.2319 35.6646,10.032 35.4906,10.0842 35.3167,10.1189 34.8297,10.2581 34.6383,9.4755 34.7949,9.4233 34.9515,9.3884 "/>
   <polygon id="_139154224" class="fil190" points="36.2037,9.0406 36.3775,9.8407 36.2037,9.8754 35.6646,10.032 35.4731,9.2319 35.821,9.145 "/>
   <polygon id="_139161744" class="fil124" points="36.3775,9.8407 36.2037,9.0406 36.3775,8.9884 36.5689,9.7885 "/>
   <polygon id="_139179288" class="fil124" points="36.5689,9.7885 36.3775,8.9884 36.9689,8.8319 37.1428,9.6319 36.9515,9.6841 "/>
   <polygon id="_139185680" class="fil125" points="37.5255,9.5275 37.1428,9.6319 36.9689,8.8319 37.1603,8.7797 37.3689,8.7449 "/>
   <polygon id="_139226928" class="fil191" points="37.5255,9.5275 37.3689,8.7449 37.5602,8.6927 37.7341,9.4755 "/>
   <polygon id="_139188648" class="fil191" points="37.5602,8.6927 38.169,8.5363 38.3428,9.3362 38.1342,9.3884 37.9254,9.4233 37.7341,9.4755 "/>
   <polygon id="_139178160" class="fil116" points="38.3428,9.3362 38.169,8.5363 38.3777,8.4841 38.5342,9.2841 "/>
   <polygon id="_139179856" class="fil192" points="38.5342,9.2841 38.3777,8.4841 38.5864,8.4319 38.7429,9.2319 "/>
   <polygon id="_139187384" class="fil192" points="39.1603,9.1276 38.7429,9.2319 38.5864,8.4319 39.0212,8.3275 "/>
   <polygon id="_139182840" class="fil193" points="39.1603,9.1276 39.0212,8.3275 39.2298,8.2928 39.3691,9.0928 "/>
   <polygon id="_139182128" class="fil193" points="39.3691,9.0928 39.2298,8.2928 39.4386,8.2406 39.5777,9.0406 "/>
   <polygon id="_139180928" class="fil194" points="39.4386,8.2406 39.8734,8.1362 39.9951,8.9537 39.7865,8.9884 39.5777,9.0406 "/>
   <polygon id="_139178728" class="fil195" points="39.9951,8.9537 39.8734,8.1362 40.0821,8.1014 40.2908,8.0493 40.4125,8.8493 40.2039,8.9015 "/>
   <polygon id="_139177024" class="fil196" points="40.4125,8.8493 40.2908,8.0493 40.5169,8.0145 40.6386,8.8145 "/>
   <polygon id="_139175176" class="fil145" points="40.6386,8.8145 40.5169,8.0145 40.7255,7.9623 40.9343,7.9276 41.0561,8.7275 40.8473,8.7624 "/>
   <polygon id="_139164152" class="fil197" points="41.0561,8.7275 40.9343,7.9276 41.1604,7.8754 41.2647,8.6927 "/>
   <polygon id="_139162304" class="fil198" points="41.2647,8.6927 41.1604,7.8754 41.3691,7.8405 41.4735,8.6406 "/>
   <polygon id="_139158904" class="fil199" points="41.4735,8.6406 41.3691,7.8405 41.5779,7.8058 41.6821,8.6058 "/>
   <polygon id="_139158352" class="fil200" points="41.6821,8.6058 41.5779,7.8058 41.8038,7.771 41.8909,8.571 "/>
   <polygon id="_139090376" class="fil118" points="41.8909,8.571 41.8038,7.771 42.0126,7.7362 42.0995,8.5363 "/>
   <polygon id="_138929352" class="fil147" points="42.0995,8.5363 42.0126,7.7362 42.2213,7.7014 42.3083,8.5014 "/>
   <polygon id="_138944680" class="fil201" points="42.3083,8.5014 42.2213,7.7014 42.43,7.6666 42.5169,8.4667 "/>
   <polygon id="_138944448" class="fil119" points="42.5169,8.4667 42.43,7.6666 42.6561,7.6319 42.7257,8.4319 "/>
   <polygon id="_138369672" class="fil202" points="42.7257,8.4319 42.6561,7.6319 42.8648,7.5971 42.9343,8.4145 "/>
   <polygon id="_138399312" class="fil203" points="42.9343,8.4145 42.8648,7.5971 43.0736,7.5797 43.1431,8.3797 "/>
   <polygon id="_137803984" class="fil204" points="43.1431,8.3797 43.0736,7.5797 43.2822,7.5449 43.3344,8.3623 "/>
   <polygon id="_138372456" class="fil120" points="43.3344,8.3623 43.2822,7.5449 43.4735,7.5275 43.5432,8.3275 "/>
   <polygon id="_138549016" class="fil205" points="43.5432,8.3275 43.4735,7.5275 43.6823,7.4927 43.7344,8.3101 "/>
   <polygon id="_137779824" class="fil121" points="43.7344,8.3101 43.6823,7.4927 43.8909,7.4753 43.9431,8.2928 "/>
   <polygon id="_137779560" class="fil206" points="43.9431,8.2928 43.8909,7.4753 44.0823,7.458 44.1345,8.2753 "/>
   <polygon id="_139086352" class="fil207" points="44.1345,8.2753 44.0823,7.458 44.2909,7.4405 44.3258,8.2579 "/>
   <polygon id="_139502256" class="fil208" points="44.3258,8.2579 44.2909,7.4405 44.4822,7.4231 44.5171,8.2406 "/>
   <polygon id="_138898800" class="fil209" points="44.5171,8.2406 44.4822,7.4231 44.6737,7.4058 44.7084,8.2232 "/>
   <polygon id="_138958496" class="fil210" points="44.7084,8.2232 44.6737,7.4058 44.8649,7.4058 44.8996,8.2058 "/>
   <polygon id="_139162944" class="fil211" points="44.8996,8.2058 44.8649,7.4058 45.0562,7.3884 45.0736,8.2058 "/>
   <polygon id="_137813072" class="fil212" points="45.0736,8.2058 45.0562,7.3884 45.2475,7.3884 45.265,8.2058 "/>
   <polygon id="_138220576" class="fil213" points="45.265,8.2058 45.2475,7.3884 45.4388,7.3884 45.4388,8.1884 "/>
   <polygon id="_16970232" class="fil214" points="45.4388,8.1884 45.4388,7.3884 45.6127,7.3884 45.6302,8.1884 "/>
   <polygon id="_138313872" class="fil143" points="33.9252,44.8334 33.734,45.6162 33.4731,45.5465 33.6818,44.7639 33.8035,44.7987 "/>
   <polygon id="_138925816" class="fil143" points="34.6383,45.0249 34.7776,45.077 34.934,45.1118 34.7427,45.9119 34.134,45.7379 33.9949,45.7031 33.734,45.6162 33.9252,44.8334 34.2036,44.9031 34.3427,44.9553 "/>
   <polygon id="_138613456" class="fil143" points="36.308,46.3293 35.7515,46.19 35.5775,46.1379 35.2297,46.051 35.0732,45.9988 34.7427,45.9119 34.934,45.1118 35.4384,45.2508 35.5949,45.303 35.7688,45.3552 35.9428,45.3901 36.4994,45.5465 "/>
   <polygon id="_20668792" class="fil81" points="36.4994,45.5465 37.2472,45.7379 37.4385,45.7901 37.2645,46.5901 36.308,46.3293 "/>
   <polygon id="_138603944" class="fil82" points="37.4385,45.7901 37.6472,45.8422 37.4733,46.6423 37.2645,46.5901 "/>
   <polygon id="_139155152" class="fil82" points="38.0472,45.9466 38.2386,45.9988 38.082,46.7987 37.4733,46.6423 37.6472,45.8422 "/>
   <polygon id="_138515448" class="fil148" points="38.8646,46.1553 38.7082,46.938 38.4994,46.9031 38.082,46.7987 38.2386,45.9988 "/>
   <polygon id="_138905992" class="fil149" points="39.2647,46.2422 39.4733,46.2944 39.3342,47.0944 39.1256,47.0424 38.7082,46.938 38.8646,46.1553 "/>
   <polygon id="_138905728" class="fil91" points="39.4733,46.2944 39.6821,46.3466 39.8907,46.3813 40.1169,46.4335 39.9778,47.2336 39.769,47.1814 39.543,47.1466 39.3342,47.0944 "/>
   <polygon id="_138222040" class="fil150" points="40.1169,46.4335 40.3256,46.4857 40.5343,46.5206 40.4125,47.3205 40.1864,47.2858 39.9778,47.2336 "/>
   <polygon id="_139324568" class="fil146" points="40.5343,46.5206 40.743,46.5728 40.9517,46.6075 40.8299,47.4076 40.6213,47.3727 40.4125,47.3205 "/>
   <polygon id="_139239256" class="fil215" points="40.9517,46.6075 41.1604,46.6423 41.3691,46.6945 41.2647,47.4945 41.0561,47.4598 40.8299,47.4076 "/>
   <polygon id="_139387728" class="fil92" points="41.3691,46.6945 41.5779,46.7292 41.8038,46.764 41.6996,47.5815 41.4735,47.5293 41.2647,47.4945 "/>
   <polygon id="_139323896" class="fil152" points="41.8038,46.764 42.0126,46.7987 41.9082,47.6162 41.6996,47.5815 "/>
   <polygon id="_137804424" class="fil152" points="42.117,47.651 41.9082,47.6162 42.0126,46.7987 42.2213,46.8336 "/>
   <polygon id="_137804368" class="fil93" points="42.2213,46.8336 42.43,46.8684 42.6387,46.9031 42.5518,47.7206 42.3431,47.6858 42.117,47.651 "/>
   <polygon id="_138450648" class="fil216" points="42.6387,46.9031 42.8301,46.938 42.7605,47.7553 42.5518,47.7206 "/>
   <polygon id="_138552600" class="fil94" points="43.2475,46.9902 43.1779,47.8075 42.7605,47.7553 42.8301,46.938 "/>
   <polygon id="_139186680" class="fil4" points="43.2475,46.9902 43.4561,47.0249 43.3866,47.825 43.1779,47.8075 "/>
   <polygon id="_21040528" class="fil95" points="43.4561,47.0249 43.6474,47.0424 43.5954,47.8597 43.3866,47.825 "/>
   <polygon id="_138940104" class="fil217" points="43.6474,47.0424 43.8562,47.0771 44.0475,47.0944 43.9953,47.8945 43.804,47.8772 43.5954,47.8597 "/>
   <polygon id="_139152456" class="fil96" points="44.0475,47.0944 44.2388,47.1119 44.204,47.9292 43.9953,47.8945 "/>
   <polygon id="_139152208" class="fil218" points="44.2388,47.1119 44.4302,47.1293 44.3953,47.9467 44.204,47.9292 "/>
   <polygon id="_139089176" class="fil96" points="44.4302,47.1293 44.6215,47.1466 44.604,47.9467 44.3953,47.9467 "/>
   <polygon id="_138914312" class="fil219" points="44.6215,47.1466 44.8127,47.1466 44.7954,47.9641 44.604,47.9467 "/>
   <polygon id="_137874744" class="fil95" points="44.8127,47.1466 45.004,47.1641 44.9867,47.9814 44.7954,47.9641 "/>
   <polygon id="_137803384" class="fil4" points="45.004,47.1641 45.1953,47.1814 45.178,47.9814 44.9867,47.9814 "/>
   <polygon id="_137803304" class="fil94" points="45.1953,47.1814 45.3692,47.1814 45.3692,47.9989 45.178,47.9814 "/>
   <polygon id="_137801072" class="fil144" points="45.3692,47.1814 45.5605,47.1814 45.5432,47.9989 45.3692,47.9989 "/>
   <polygon id="_138400408" class="fil93" points="45.5605,47.1814 45.7345,47.1814 45.7345,47.9989 45.5432,47.9989 "/>
  </g>
  <path class="fil220" d="M39.1603 9.1276c2.7015,-0.6262 4.8582,-0.9392 6.4699,-0.9392l0.1391 0c1.6001,0 3.7509,0.313 6.4524,0.9392l5.6003 1.4782 0.8175 0.2262 0.8521 0.2609c0.6262,0.2435 0.9799,0.9102 1.061,2l0.3478 2.3306 4.4698 0.8348c0.5798,0.255 0.9566,0.6784 1.1305,1.2697l0.2782 0.7651 20.6965 0 -3.4435 18.9227 -17.2182 0 -0.2087 0.6261c-0.1623,0.6029 -0.5392,1.0261 -1.1305,1.2697l-4.4523 0.8348 -0.3479 2.3305c-0.0928,1.1014 -0.4522,1.7681 -1.0783,2l-0.8522 0.261 -0.8174 0.226c-2.8059,0.7768 -4.6669,1.2697 -5.5829,1.4783 -2.7016,0.6262 -4.8581,0.9392 -6.4698,0.9392l-0.1392 0c-1.6117,0 -3.7683,-0.313 -6.4698,-0.9392l-5.5829 -1.4783 -0.8174 -0.226 -0.8696 -0.261c-0.6145,-0.2319 -0.9681,-0.8986 -1.061,-2l-0.3478 -2.3305 -4.4523 -0.8348c-0.5798,-0.2435 -0.9624,-0.6668 -1.148,-1.2697l-0.2086 -0.6261 -22.1227 0 3.4436 -18.9227 18.5225 0 0.261 -0.7651c0.1739,-0.5913 0.5507,-1.0145 1.1304,-1.2697l4.4698 -0.8348 0.3478 -2.3306c0.0928,-1.0898 0.4464,-1.7565 1.0609,-2l0.8697 -0.2609 0.7999 -0.2262 5.6003 -1.4782z"/>
  <path class="fil221" d="M64.3962 17.4758c0.2551,0.2086 0.4116,0.4754 0.4696,0.8l-37.7756 0c0.058,-0.3246 0.2203,-0.5914 0.487,-0.8 0.2551,-0.2088 0.5507,-0.3132 0.887,-0.3132l4.3306 -0.7304 0.0522 -2.0522c0.0579,-0.8232 0.2492,-1.3277 0.5739,-1.5132 0.8349,-0.4754 2.6958,-1.0087 5.5829,-1.6 2.8871,-0.5913 5.0727,-0.887 6.5567,-0.887 1.8669,0 4.2554,0.2377 7.1657,0.7131 3.3393,0.5218 5.1944,1.0841 5.5654,1.687 0.4754,0.7537 0.6667,1.9653 0.574,3.635l4.6262 0.7477c0.3363,0 0.6378,0.1044 0.9044,0.3132z"/>
  <path class="fil221" d="M64.3962 38.1549c-0.2666,0.2087 -0.5681,0.3131 -0.9044,0.3131l-4.6262 0.7478c0.0927,1.6581 -0.0986,2.8697 -0.574,3.635 -0.371,0.5913 -2.2261,1.1537 -5.5654,1.6871l-4.035 0.5217 -3.1307 0.1912c-1.4841,0 -3.6696,-0.2955 -6.5567,-0.8868 -2.8871,-0.5914 -4.748,-1.1247 -5.5829,-1.6001 -0.3247,-0.1855 -0.516,-0.69 -0.5739,-1.5132l-0.0522 -2.0522 -4.3306 -0.7305c-0.3363,0 -0.6319,-0.1044 -0.887,-0.3131 -0.2667,-0.2202 -0.429,-0.4928 -0.487,-0.8174l37.7756 0c-0.058,0.3246 -0.2145,0.5972 -0.4696,0.8174z"/>
  <g id="_138674376">
   <path id="_139312488" class="fil0 str1" d="M64.3962 17.4758c-0.2666,-0.2088 -0.5681,-0.3132 -0.9044,-0.3132l-4.6262 -0.7477c0.0927,-1.6697 -0.0986,-2.8813 -0.574,-3.635 -0.371,-0.6029 -2.2261,-1.1653 -5.5654,-1.687 -2.9103,-0.4754 -5.2988,-0.7131 -7.1657,-0.7131 -1.4841,0 -3.6696,0.2957 -6.5567,0.887 -2.8871,0.5914 -4.748,1.1246 -5.5829,1.6 -0.3247,0.1855 -0.516,0.69 -0.5739,1.5132l-0.0522 2.0522 -4.3306 0.7304c-0.3363,0 -0.6319,0.1044 -0.887,0.3132 -0.2667,0.2086 -0.429,0.4754 -0.487,0.8l37.7756 0c-0.058,-0.3246 -0.2145,-0.5914 -0.4696,-0.8"/>
   <path id="_138674448" class="fil0 str1" d="M64.3962 38.1549c-0.2666,0.2087 -0.5681,0.3131 -0.9044,0.3131l-4.6262 0.7478c0.0927,1.6581 -0.0986,2.8697 -0.574,3.635 -0.371,0.5913 -2.2261,1.1537 -5.5654,1.6871l-4.035 0.5217 -3.1307 0.1912c-1.4841,0 -3.6696,-0.2955 -6.5567,-0.8868 -2.8871,-0.5914 -4.748,-1.1247 -5.5829,-1.6001 -0.3247,-0.1855 -0.516,-0.69 -0.5739,-1.5132l-0.0522 -2.0522 -4.3306 -0.7305c-0.3363,0 -0.6319,-0.1044 -0.887,-0.3131 -0.2667,-0.2202 -0.429,-0.4928 -0.487,-0.8174l37.7756 0c-0.058,0.3246 -0.2145,0.5972 -0.4696,0.8174"/>
  </g>
  <path class="fil222" d="M60.1874 23.3717c0.8232,1.4493 1.2347,2.9682 1.2347,4.5567 0,1.5768 -0.4115,3.09 -1.2347,4.5393 -0.7884,1.403 -1.9074,2.6436 -3.3568,3.722 -1.4377,1.0783 -3.0957,1.9131 -4.9741,2.5045 -1.9362,0.6029 -3.9653,0.9043 -6.0872,0.9043 -2.1219,0 -4.151,-0.3014 -6.0872,-0.9043 -1.8784,-0.5914 -3.5364,-1.4262 -4.9742,-2.5045 -1.4493,-1.0783 -2.5682,-2.319 -3.3567,-3.722 -0.8232,-1.4493 -1.2348,-2.9625 -1.2348,-4.5393 0,-1.5885 0.4116,-3.1074 1.2348,-4.5567 0.7885,-1.3914 1.9074,-2.6262 3.3567,-3.7046 1.4377,-1.0783 3.0958,-1.9131 4.9742,-2.5045 1.9362,-0.6144 3.9653,-0.9217 6.0872,-0.9217 2.1219,0 4.151,0.3073 6.0872,0.9217 1.8784,0.5914 3.5364,1.4262 4.9741,2.5045 1.4494,1.0783 2.5684,2.3132 3.3568,3.7046z"/>
  <path class="fil0 str2" d="M60.1874 23.3717c-0.7884,-1.3914 -1.9074,-2.6262 -3.3568,-3.7046 -1.4377,-1.0783 -3.0957,-1.9131 -4.9741,-2.5045 -1.9362,-0.6144 -3.9653,-0.9217 -6.0872,-0.9217 -2.1219,0 -4.151,0.3073 -6.0872,0.9217 -1.8784,0.5914 -3.5364,1.4262 -4.9742,2.5045 -1.4493,1.0783 -2.5682,2.3132 -3.3567,3.7046 -0.8232,1.4493 -1.2348,2.9682 -1.2348,4.5567 0,1.5768 0.4116,3.09 1.2348,4.5393 0.7885,1.403 1.9074,2.6436 3.3567,3.722 1.4377,1.0783 3.0958,1.9131 4.9742,2.5045 1.9362,0.6029 3.9653,0.9043 6.0872,0.9043 2.1219,0 4.151,-0.3014 6.0872,-0.9043 1.8784,-0.5914 3.5364,-1.4262 4.9741,-2.5045 1.4494,-1.0783 2.5684,-2.319 3.3568,-3.722 0.8232,-1.4493 1.2347,-2.9625 1.2347,-4.5393 0,-1.5885 -0.4115,-3.1074 -1.2347,-4.5567"/>
  <g id="_137810464">
   <polygon id="_20653392" class="fil223" points="6.181,34.6073 48.0165,34.6073 50.559,34.8814 47.8863,35.2458 6.2009,35.2458 3.0547,34.9563 "/>
   <polygon id="_139087328" class="fil223" points="52.6756,34.6073 82.0869,34.6073 84.443,34.8814 81.9954,35.2458 52.6895,35.2458 50.559,34.8814 "/>
   <polygon id="_137747136" class="fil223" points="6.181,35.6942 48.0165,35.6942 49.9302,36.0079 47.8863,36.3327 6.2009,36.3327 2.8547,36.0432 "/>
   <polygon id="_139069504" class="fil223" points="52.6756,35.6942 82.0869,35.6942 84.2477,35.9683 81.9954,36.3327 52.6895,36.3327 50.6181,36.0079 "/>
   <polygon id="_138587944" class="fil223" points="8.8498,19.3673 50.6853,19.3673 53.9143,19.7277 50.5551,20.0058 8.8697,20.0058 5.8336,19.7163 "/>
   <polygon id="_137785144" class="fil223" points="56.5917,19.3673 84.7557,19.3673 87.2153,19.6414 84.6642,20.0058 56.3222,20.0058 53.9143,19.7277 "/>
   <polygon id="_139500808" class="fil223" points="8.721,20.4442 84.5211,20.4442 86.9912,20.8921 84.4672,21.0827 8.7409,21.0827 5.6318,20.7932 "/>
   <polygon id="_139086792" class="fil223" points="6.2301,33.5053 82.0302,33.5053 84.6111,33.9532 81.9763,34.1438 6.25,34.1438 3.2596,33.8543 "/>
   <polygon id="_138454832" class="fil223" points="6.4693,32.4588 82.2694,32.4588 84.8052,32.9067 82.2155,33.0973 6.4892,33.0973 3.4456,32.8078 "/>
   <polygon id="_139471744" class="fil223" points="6.7384,31.3882 82.5385,31.3882 84.9975,31.8361 82.4846,32.0267 6.7583,32.0267 3.639,31.7372 "/>
   <polygon id="_139234368" class="fil223" points="6.9776,30.306 82.7777,30.306 85.1963,30.7539 82.7238,30.9445 6.9975,30.9445 3.8351,30.655 "/>
   <polygon id="_137791240" class="fil223" points="7.0374,29.2595 82.8375,29.2595 85.3867,29.7074 82.7836,29.898 7.0573,29.898 4.0261,29.6085 "/>
   <polygon id="_138223000" class="fil223" points="7.2985,28.1773 83.0986,28.1773 85.5807,28.6252 83.0447,28.8158 7.3184,28.8158 4.2245,28.5263 "/>
   <polygon id="_138451016" class="fil223" points="7.456,27.0768 83.2561,27.0768 85.784,27.5247 83.2022,27.7153 7.4759,27.7153 4.4246,27.4258 "/>
   <polygon id="_139501760" class="fil223" points="7.6833,25.9069 83.4834,25.9069 85.9971,26.3548 83.4295,26.5454 7.7032,26.5454 4.6378,26.2559 "/>
   <polygon id="_139373848" class="fil223" points="7.9344,24.8343 83.7345,24.8343 86.1881,25.2822 83.6806,25.4728 7.9543,25.4728 4.8331,25.1833 "/>
   <polygon id="_138906432" class="fil223" points="8.0958,23.7328 83.8959,23.7328 86.3933,24.1807 83.842,24.3713 8.1157,24.3713 5.03,24.0818 "/>
   <polygon id="_138375736" class="fil223" points="8.2987,22.7341 84.0988,22.7341 86.5739,23.182 84.0449,23.3726 8.3186,23.3726 5.2179,23.0831 "/>
   <polygon id="_138912392" class="fil223" points="8.5623,21.5405 84.3624,21.5405 86.7913,21.9884 84.3085,22.179 8.5822,22.179 5.4327,21.8895 "/>
  </g>
  <g id="_139101000">
   <path id="_139308280" class="fil0 str3" d="M17.8202 20.4846l-9.7395 0 -2.9045 14.6615 9.7396 0 0.3304 -1.6523 1.6696 0 2.2437 -11.3743 -1.6697 0 0.3304 -1.6349zm-3.7914 3.1306l-1.6349 8.3656 -1.7739 0 1.6521 -8.3656 1.7567 0z"/>
   <polygon id="_138316768" class="fil0 str3" points="21.229,20.5019 18.342,35.1461 23.1596,35.1461 26.0467,20.5019 "/>
   <polygon id="_139088584" class="fil0 str3" points="39.2125,20.4846 29.4381,20.4846 29.1251,22.1195 27.4902,22.1195 25.2467,33.4938 26.8815,33.4938 26.5511,35.1461 33.0382,35.1461 33.3514,33.4938 33.4556,33.4938 33.1253,35.1461 36.3255,35.1461 37.9081,27.0587 31.4383,27.0587 30.8121,30.2067 32.4817,30.2067 32.1165,31.9808 30.36,31.9808 32.0121,23.6152 35.4036,23.6152 35.0732,25.2848 38.2733,25.2848 "/>
   <polygon id="_139088352" class="fil0 str3" points="52.361,20.4846 47.5433,20.4846 44.6562,35.1461 47.8215,35.1461 49.1086,28.5719 49.2477,28.5719 48.5868,31.859 53.4218,31.859 54.0653,28.5719 54.1697,28.5719 52.8653,35.1461 57.6829,35.1461 60.5699,20.4846 55.7523,20.4846 55.1089,23.7717 51.7174,23.7717 "/>
   <path id="_139221656" class="fil0 str3" d="M72.101 20.4846l-8.1048 0 -0.3131 1.6349 -1.6348 0 -2.2436 11.3743 1.6349 0 -0.3305 1.6523 8.1047 0 0.3305 -1.6523 1.6522 0 2.2436 -11.3743 -1.6523 0 0.3132 -1.6349zm-3.7742 3.1306l-1.6522 8.3656 -1.7566 0 1.6522 -8.3656 1.7566 0z"/>
   <polygon id="_138453016" class="fil0 str3" points="79.7012,23.7717 80.3448,20.4846 75.5271,20.4846 72.6401,35.1461 75.788,35.1461 77.0924,28.5719 77.2141,28.5719 76.5707,31.859 78.2055,31.859 77.5446,35.1461 82.3796,35.1461 85.2667,20.4846 82.1013,20.4846 80.8144,27.0587 80.6751,27.0587 81.3187,23.7717 "/>
   <polygon id="_139194128" class="fil0 str3" points="41.0387,20.4846 38.1515,35.1288 42.9692,35.1288 45.8562,20.4846 "/>
  </g>
  <g id="_139161064">
   <path id="_139100768" class="fil224" d="M14.394 23.2847l-2.5218 0 -1.7915 9.1135 2.5219 0 1.7914 -9.1135m2.8697 -2.3827l-0.313 1.6174 1.6521 0 -2.087 10.6266 -1.6697 0 -0.3303 1.6522 -8.9744 0 2.7479 -13.8962 8.9744 0z"/>
   <polygon id="_139221928" class="fil224" points="21.4378,20.902 25.4902,20.902 22.7596,34.7982 18.7072,34.7982 "/>
   <polygon id="_139356032" class="fil224" points="38.656,20.902 37.8734,24.937 35.4384,24.937 35.7688,23.2847 31.6122,23.2847 29.8208,32.3982 32.3426,32.3982 32.847,29.8589 31.1773,29.8589 31.6469,27.4762 37.3689,27.4762 35.9254,34.7982 33.4905,34.7982 33.821,33.146 32.9513,33.146 32.6383,34.7982 26.9163,34.7982 27.2467,33.146 25.6119,33.146 27.7163,22.5194 29.3337,22.5194 29.6643,20.902 "/>
   <polygon id="_139323392" class="fil224" points="51.1783,24.1891 55.3349,24.1891 55.9784,20.902 60.0308,20.902 57.2828,34.7982 53.2305,34.7982 54.5349,28.2241 53.6653,28.2241 53.0218,31.5112 48.9695,31.5112 49.6129,28.2241 48.7085,28.2241 47.4216,34.7982 45.0214,34.7982 47.7695,20.902 51.8217,20.902 "/>
   <path id="_22518608" class="fil224" d="M68.692 23.2847l-2.5218 0 -1.7914 9.1135 2.5218 0 1.7914 -9.1135m2.8698 -2.3827l-0.3305 1.6174 1.6696 0 -2.1044 10.6266 -1.6522 0 -0.3306 1.6522 -7.3394 0 0.3305 -1.6522 -1.6349 0 2.087 -10.6266 1.635 0 0.3303 -1.6174 7.3396 0z"/>
   <polygon id="_138232248" class="fil224" points="79.1447,24.1891 80.7795,24.1891 80.136,27.4762 81.023,27.4762 82.3274,20.902 84.7102,20.902 81.9796,34.7982 77.9272,34.7982 78.5707,31.5112 76.9359,31.5112 77.5793,28.2241 76.6925,28.2241 75.388,34.7982 73.0053,34.7982 75.7359,20.902 79.8056,20.902 "/>
   <polygon id="_137876528" class="fil224" points="41.1778,20.902 45.2302,20.902 42.4996,34.7982 38.4472,34.7982 "/>
  </g>
  <g id="_138912976">
   <path id="_138224920" class="fil225" d="M14.8636 22.9021l-3.2871 0 -1.9479 9.8613 3.2871 0 1.9479 -9.8613m1.6175 0l1.6696 0 -1.9479 9.8613 -1.6523 0 -0.3304 1.6696 -8.2091 0 2.5915 -13.1658 8.2089 0 -0.3303 1.6349z"/>
   <polygon id="_138511608" class="fil226" points="21.7682,21.2672 25.0554,21.2672 22.4465,34.433 19.1595,34.433 "/>
   <polygon id="_139159360" class="fil227" points="36.2211,22.9021 31.2991,22.9021 29.3686,32.7634 32.6557,32.7634 33.2992,29.4763 31.6469,29.4763 31.9599,27.8589 36.9168,27.8589 35.6124,34.433 33.9601,34.433 34.2731,32.7634 32.6557,32.7634 32.3253,34.433 27.3684,34.433 27.6989,32.7634 26.0641,32.7634 28.012,22.9021 29.6469,22.9021 29.9599,21.2672 38.2037,21.2672 37.5602,24.5543 35.8906,24.5543 "/>
   <polygon id="_138651104" class="fil228" points="59.5787,21.2672 56.9872,34.433 53.6827,34.433 54.9872,27.8589 53.3522,27.8589 52.7087,31.1459 49.4216,31.1459 50.0651,27.8589 48.4129,27.8589 47.1084,34.433 45.4736,34.433 48.0825,21.2672 51.3696,21.2672 50.7087,24.5543 55.6306,24.5543 56.2914,21.2672 "/>
   <path id="_138651056" class="fil229" d="M70.7791 22.9021l1.6696 0 -1.9478 9.8613 -1.6697 0 -0.3305 1.6696 -6.5742 0 0.3304 -1.6696 -1.6348 0 1.948 -9.8613 1.6348 0 0.313 -1.6349 6.5917 0 -0.3305 1.6349m-1.6348 0l-3.2871 0 -1.948 9.8613 3.2871 0 1.948 -9.8613z"/>
   <polygon id="_138313552" class="fil230" points="84.2579,21.2672 81.6665,34.433 78.3795,34.433 79.023,31.1459 77.3881,31.1459 78.049,27.8589 76.3793,27.8589 75.0924,34.433 73.4574,34.433 76.0489,21.2672 79.336,21.2672 78.6925,24.5543 80.3274,24.5543 79.6664,27.8589 81.336,27.8589 82.6231,21.2672 "/>
   <polygon id="_138396504" class="fil231" points="41.5083,21.2672 44.7954,21.2672 42.1865,34.433 38.8995,34.433 "/>
  </g>
  <g id="_138970696">
   <path id="_138318288" class="fil0 str4" d="M16.4811 22.9021l0.3303 -1.6349 -8.2089 0 -2.5915 13.1658 8.2091 0 0.3304 -1.6696 1.6523 0 1.9479 -9.8613 -1.6696 0zm-1.6175 0l-1.9479 9.8613 -3.2871 0 1.9479 -9.8613 3.2871 0z"/>
   <polygon id="_139236384" class="fil0 str4" points="21.7682,21.2672 19.1595,34.433 22.4465,34.433 25.0554,21.2672 "/>
   <polygon id="_138616456" class="fil0 str4" points="36.2211,22.9021 31.2991,22.9021 29.3686,32.7634 32.6557,32.7634 33.2992,29.4763 31.6469,29.4763 31.9599,27.8589 36.9168,27.8589 35.6124,34.433 33.9601,34.433 34.2731,32.7634 32.6557,32.7634 32.3253,34.433 27.3684,34.433 27.6989,32.7634 26.0641,32.7634 28.012,22.9021 29.6469,22.9021 29.9599,21.2672 38.2037,21.2672 37.5602,24.5543 35.8906,24.5543 "/>
   <polygon id="_138958824" class="fil0 str4" points="59.5787,21.2672 56.9872,34.433 53.6827,34.433 54.9872,27.8589 53.3522,27.8589 52.7087,31.1459 49.4216,31.1459 50.0651,27.8589 48.4129,27.8589 47.1084,34.433 45.4736,34.433 48.0825,21.2672 51.3696,21.2672 50.7087,24.5543 55.6306,24.5543 56.2914,21.2672 "/>
   <path id="_137818392" class="fil0 str4" d="M69.1443 22.9021l-1.948 9.8613 -3.2871 0 1.948 -9.8613 3.2871 0zm1.6348 0l0.3305 -1.6349 -6.5917 0 -0.313 1.6349 -1.6348 0 -1.948 9.8613 1.6348 0 -0.3304 1.6696 6.5742 0 0.3305 -1.6696 1.6697 0 1.9478 -9.8613 -1.6696 0z"/>
   <polygon id="_139183248" class="fil0 str4" points="84.2579,21.2672 81.6665,34.433 78.3795,34.433 79.023,31.1459 77.3881,31.1459 78.049,27.8589 76.3793,27.8589 75.0924,34.433 73.4574,34.433 76.0489,21.2672 79.336,21.2672 78.6925,24.5543 80.3274,24.5543 79.6664,27.8589 81.336,27.8589 82.6231,21.2672 "/>
   <polygon id="_21944328" class="fil0 str4" points="41.5083,21.2672 38.8995,34.433 42.1865,34.433 44.7954,21.2672 "/>
  </g>
  <g id="_138223376">
   <path id="_137782504" class="fil223" d="M37.1776 39.8594l-1.6174 1.4088 -0.4174 -0.2088 0.2086 -2.1393 -0.7653 1.4958 -0.1042 0.2956 -0.3652 -0.1739c0.0695,-0.0696 0.1275,-0.1565 0.1738,-0.2608l0.7827 -1.5306 0.1043 -0.2957 0.8174 0.4175 -0.1739 1.8262 1.374 -1.2174 0.7826 0.3999 -0.1913 0.261 -0.7652 1.5304 -0.1043 0.2957 -0.6784 -0.3478 0.1913 -0.2609 0.7653 -1.4957 -0.0174 0z"/>
   <path id="_139207416" class="fil223" d="M39.9082 40.7812l-0.6435 -0.2088c-0.0928,-0.0231 -0.1508,0.0116 -0.174,0.1044l-0.4174 1.3913c-0.0348,0.0929 -0.0115,0.1508 0.0696,0.174l0.6609 0.1913c0.0812,0.0348 0.1333,0.0057 0.1565,-0.0869l0.4348 -1.3915 -0.0869 -0.1738m-0.9044 -0.5913l1.3218 0.3999c0.3015,0.0928 0.4059,0.2899 0.313,0.5913l-0.4 1.3218c-0.0927,0.3015 -0.2899,0.4116 -0.5914,0.3305l-1.3217 -0.4c-0.3015,-0.1044 -0.4059,-0.3015 -0.3131,-0.5914l0.4175 -1.3391c0.0926,-0.3015 0.2841,-0.4059 0.5739,-0.313z"/>
   <polygon id="_139075600" class="fil223" points="41.3864,40.8681 42.2213,40.9898 43.1083,43.0073 43.3517,41.4768 43.3517,41.1638 43.7518,41.2333 43.6649,41.529 43.3517,43.5291 42.5691,43.4074 41.6648,41.3551 41.4213,42.9203 41.4213,43.2335 41.0212,43.1813 41.1256,42.8683 41.3691,41.1811 "/>
   <path id="_139227576" class="fil223" d="M46.065 42.0681c0.3246,0.0116 0.4811,0.174 0.4696,0.487l-0.0174 0.5913c0,0.3131 -0.1566,0.4696 -0.4696,0.4696l-1.6001 -0.0348 -0.0522 -0.3652 0.3653 0.0697 0.9565 0.0173c0.0928,0 0.1391,-0.0464 0.1391,-0.1392l0 -0.2955c0,-0.0929 -0.0405,-0.1451 -0.1217,-0.1566l-0.8696 -0.0174c-0.313,0 -0.4696,-0.1566 -0.4696,-0.4696l0.0174 -0.5044c0,-0.313 0.1566,-0.4696 0.4696,-0.4696l1.6001 0.0348 0.0522 0.3479 -0.3652 -0.0522 -0.9566 -0.0174c-0.0928,-0.0115 -0.1392,0.029 -0.1392,0.1218l0 0.226c0,0.0928 0.0406,0.1392 0.1217,0.1392l0.8697 0.0173z"/>
   <polygon id="_138958000" class="fil223" points="49.1434,41.4421 48.7781,41.4246 48.4303,41.4421 48.5868,43.1638 48.6563,43.4769 47.8912,43.5465 47.8912,43.2335 47.7346,41.5116 47.3868,41.5463 47.0215,41.6334 47.0564,41.2682 49.0564,41.0942 "/>
   <path id="_139142224" class="fil223" d="M49.6129 41.0072l1.8784 -0.3999 0.1217 0.3304 -0.3652 0.0173 -0.8521 0.1914 0.139 0.6956 0.7478 -0.1739c0.1393,-0.0232 0.2552,-0.0638 0.3479,-0.1218l0.087 0.4001 -0.3652 0.0174 -0.7479 0.1565 0.1391 0.7305 0.8696 -0.1913 0.3479 -0.1218 0.0174 0.3479 -1.8783 0.4001 -0.0175 -0.3132 -0.3652 -1.6696 -0.1044 -0.2957z"/>
   <path id="_139142176" class="fil223" d="M54.5523 40.5202c0.0812,0.2088 0.0115,0.371 -0.2087,0.487l0.5565 0.6262c0.0696,0.0927 0.1508,0.1506 0.2435,0.1739l-0.7478 0.2782 -0.7305 -0.8348 -0.4695 0.1739 0.2435 0.6609 0.1391 0.2957 -0.7305 0.2609 -0.0522 -0.3131 -0.5913 -1.6175 -0.1391 -0.2782 1.7392 -0.6261c0.2899,-0.1044 0.4869,-0.0116 0.5913,0.2783l0.1565 0.4347m-0.9566 -0.313l-0.7478 0.2608 0.2435 0.6609 0.7478 -0.2608c0.0812,-0.0231 0.1044,-0.0869 0.0695,-0.1913l-0.1391 -0.3652c-0.0347,-0.1044 -0.0926,-0.1392 -0.1739,-0.1044z"/>
   <path id="_22539272" class="fil223" d="M56.8828 38.6767l-0.3477 0.1217 -0.8349 0.4696c-0.0812,0.0464 -0.0986,0.1102 -0.0522,0.1913l0.1043 0.1914c0.0464,0.0811 0.1044,0.0985 0.1739,0.0521l0.7827 -0.4174c0.2667,-0.1391 0.4753,-0.0754 0.6261,0.1914l0.2784 0.5216c0.1506,0.2784 0.0926,0.4929 -0.174,0.6436l-1.4088 0.7653 -0.2086 -0.2957 0.3304 -0.1218 0.8521 -0.4522c0.0813,-0.0463 0.0986,-0.11 0.0522,-0.1913l-0.1564 -0.2608c-0.0464,-0.0928 -0.1044,-0.116 -0.174,-0.0696l-0.7652 0.4174c-0.2783,0.1507 -0.4928,0.0869 -0.6436,-0.1914l-0.2434 -0.4347c-0.1508,-0.2784 -0.0869,-0.4928 0.1912,-0.6436l1.3915 -0.7651 0.226 0.2782z"/>
   <path id="_22539248" class="fil232" d="M36.8471 39.9984l-1.6348 1.4089 -0.4174 -0.2262 0.2261 -2.1217 0 -0.0175 -0.7826 1.4957 -0.1044 0.3132 -0.3652 -0.1915c0.0811,-0.0695 0.1449,-0.1564 0.1913,-0.2608l0.7826 -1.5131 0.1044 -0.2956 0.8175 0.4174 -0.1914 1.8087 1.3914 -1.1827 0.7651 0.4001 -0.1738 0.2608 -0.7827 1.5132 -0.1043 0.2957 -0.6783 -0.3479 0.1914 -0.2609 0.7651 -1.4958z"/>
   <path id="_138932888" class="fil232" d="M38.8124 40.8681l-0.4347 1.3913c-0.0349,0.0928 -0.0116,0.1508 0.0695,0.174l0.6609 0.2087c0.0812,0.0232 0.1334,-0.0058 0.1566,-0.087l0.4347 -1.4087c0.0349,-0.0812 0.0058,-0.1392 -0.0869,-0.1739l-0.6435 -0.1913c-0.0811,-0.0233 -0.1333,0.0058 -0.1566,0.0869m-0.0869 -0.487l1.3218 0.4175c0.2899,0.0926 0.3885,0.2898 0.2957,0.5913l-0.4001 1.3218c-0.0927,0.313 -0.2899,0.4174 -0.5913,0.313l-1.3218 -0.4001c-0.3015,-0.0926 -0.4058,-0.2897 -0.313,-0.5912l0.4174 -1.3219c0.0928,-0.3014 0.2899,-0.4116 0.5913,-0.3304z"/>
   <polygon id="_138932840" class="fil232" points="41.1604,41.0942 42.0126,41.2333 42.8823,43.2508 42.8996,43.2508 43.1258,41.7203 43.1431,41.4073 43.5432,41.4768 43.4388,41.7725 43.1258,43.7726 42.3431,43.6509 41.4561,41.5985 41.2126,43.1464 41.1951,43.4769 40.7952,43.4074 40.8995,43.1117 41.1604,41.4073 "/>
   <path id="_138615976" class="fil232" d="M46.3433 41.929l-0.3654 -0.0521 -0.9565 -0.0349c-0.0927,0 -0.1391,0.0464 -0.1391,0.1392l0 0.226c-0.0116,0.0929 0.029,0.1393 0.1217,0.1393l0.8697 0.0173c0.313,0.0116 0.4638,0.1739 0.4521,0.487l0 0.5913c-0.0116,0.3247 -0.1739,0.4812 -0.4869,0.4696l-1.6001 -0.0522 -0.0348 -0.3478 0.3479 0.0695 0.9566 0.0175c0.0927,0 0.1391,-0.0464 0.1391,-0.1392l0.0173 -0.3131c0,-0.0926 -0.0464,-0.1391 -0.1391,-0.1391l-0.8696 -0.0173c-0.3131,-0.0116 -0.4637,-0.1739 -0.4522,-0.4871l0.0174 -0.5043c0,-0.313 0.1566,-0.4638 0.4696,-0.4523l1.6001 0.0349 0.0522 0.3478z"/>
   <polygon id="_138615952" class="fil232" points="48.1869,41.7378 48.3433,43.4595 48.4129,43.7726 47.6476,43.8422 47.6651,43.5117 47.5085,41.8073 47.1433,41.842 46.7954,41.9116 46.8302,41.5638 48.8303,41.3899 48.9173,41.7378 48.5521,41.7029 "/>
   <polygon id="_139063264" class="fil232" points="49.4043,41.3029 51.2652,40.9203 51.4043,41.2507 51.0391,41.2682 50.1695,41.4421 50.3086,42.1377 51.0739,41.9812 51.4218,41.8595 51.4913,42.2594 51.1261,42.2769 50.3782,42.4334 50.5174,43.1464 51.3869,42.9725 51.7348,42.8508 51.7521,43.1986 49.8739,43.5987 49.8565,43.2682 49.5086,41.5985 "/>
   <path id="_139063216" class="fil232" d="M53.474 40.5202l-0.7653 0.2784 0.2435 0.6608 0.7479 -0.2608c0.0811,-0.0348 0.1044,-0.0986 0.0695,-0.1914l-0.1391 -0.3826c-0.0348,-0.0928 -0.087,-0.1275 -0.1565,-0.1044m0.9392 0.3306c0.0811,0.2086 0.0115,0.371 -0.2088,0.4869l0.5391 0.6261 0.2437 0.1914 -0.7306 0.2608 -0.7304 -0.8522 -0.4696 0.174 0.2261 0.6782 0.1566 0.2783 -0.7306 0.2609 -0.0696 -0.3131 -0.5738 -1.6001 -0.1392 -0.2956 1.7392 -0.6087c0.3014,-0.1044 0.4986,-0.0116 0.5913,0.2782l0.1566 0.4349z"/>
   <path id="_138366536" class="fil232" d="M54.9872 40.1028c-0.1508,-0.2783 -0.0871,-0.4869 0.1912,-0.626l1.3914 -0.7653 0.2261 0.2957 -0.3479 0.1217 -0.8521 0.4521c-0.0696,0.0464 -0.0871,0.1044 -0.0522,0.174l0.1217 0.2087c0.0348,0.0812 0.0928,0.0985 0.1739,0.0522l0.7653 -0.4c0.2666,-0.1508 0.4812,-0.0869 0.6434,0.1913l0.2783 0.5218c0.1508,0.2783 0.0871,0.4869 -0.1913,0.626l-1.4088 0.7653 -0.2086 -0.2957 0.3479 -0.1217 0.8348 -0.4521c0.0811,-0.0465 0.0984,-0.1044 0.0522,-0.174l-0.1393 -0.2783c-0.0464,-0.0811 -0.1101,-0.0986 -0.1912,-0.0522l-0.7653 0.4001c-0.2666,0.1506 -0.4812,0.0869 -0.6435,-0.1913l-0.226 -0.4523z"/>
  </g>
  <g id="_138231896">
   <path id="_138319616" class="fil223" d="M38.169 13.8756l-0.7479 0.2609 0.574 1.6001 0.7478 -0.2783c0.0811,-0.0231 0.1044,-0.0753 0.0695,-0.1566l-0.4869 -1.3391 -0.1565 -0.087m0.8 -0.1218l0.4696 1.2871c0.1044,0.2783 0.0116,0.4754 -0.2783,0.5913l-1.7392 0.6261 -0.0522 -0.313 -0.574 -1.5653 -0.1391 -0.2783 1.7392 -0.6261c0.2783,-0.1043 0.4696,-0.0117 0.574,0.2782z"/>
   <polygon id="_138330416" class="fil223" points="40.7255,12.8668 40.7604,13.18 41.143,14.7974 41.2473,15.0931 40.5169,15.267 40.4821,14.9539 40.0995,13.3191 39.9951,13.0407 "/>
   <path id="_138692272" class="fil223" d="M43.804 12.7104l-1.0261 0.1217c-0.0811,0 -0.1218,0.0464 -0.1218,0.1391l0.174 1.4262c0,0.0811 0.0463,0.1217 0.1391,0.1217l0.6957 -0.0869 0.1043 -0.1044 -0.0869 -0.6782 -0.574 0.0695 -0.174 0.0522 -0.0347 -0.3305 1.4435 -0.1566c-0.0231,0.0696 -0.0289,0.1682 -0.0173,0.2957l0.0869 0.7479c0.0116,0.116 0.0406,0.2144 0.087,0.2957l-0.6088 0.0695 -0.0521 -0.1913c-0.0115,0.1391 -0.1044,0.2202 -0.2783,0.2435l-0.9044 0.1044c-0.3014,0.0231 -0.4696,-0.116 -0.5044,-0.4174l-0.1564 -1.3393c-0.0349,-0.313 0.0984,-0.4869 0.3999,-0.5218l1.6696 -0.1912 0.0871 0.3478 -0.3479 -0.0173z"/>
   <path id="_137791560" class="fil223" d="M46.2736 12.3451l-0.052 0.3131 0 1.6696c0,0.116 0.0173,0.2144 0.052,0.2957l-0.7651 0 0.052 -0.2957 0 -1.6696 -0.052 -0.3131 0.7651 0z"/>
   <polygon id="_139098672" class="fil223" points="49.213,12.9016 48.8651,12.8147 48.5172,12.7799 48.3607,14.4495 48.3781,14.7626 47.6302,14.693 47.6998,14.38 47.8564,12.7104 47.5085,12.6755 47.1433,12.7104 47.2302,12.3625 49.1955,12.5364 "/>
   <path id="_139237680" class="fil223" d="M50.1347 14.1017l0.7479 0.1566 -0.1913 -0.9219 -0.5566 0.7653m1.2 -1.1305l0.4523 1.9827 0.1391 0.4696 -0.8174 -0.174 0.0174 -0.0522 -0.0349 -0.3303 -0.0521 -0.2957 -1.0262 -0.2088 -0.2086 0.2957 -0.1217 0.2957 -0.4349 -0.1043 0.3305 -0.3652 1.0956 -1.5132 -0.0695 -0.1565 0.7304 0.1565z"/>
   <polygon id="_138317352" class="fil223" points="53.9087,14.1017 53.3175,15.6669 54.1349,15.9801 54.4827,16.0496 54.3088,16.3453 52.5522,15.7018 52.6913,15.4235 53.2827,13.8582 53.3522,13.5625 54.0653,13.8234 "/>
   <path id="_138223592" class="fil232" d="M37.1776 13.9626l0.574 1.5826 0.7478 -0.2608c0.0696,-0.0349 0.0928,-0.0928 0.0696,-0.174l-0.487 -1.3391c-0.0231,-0.0812 -0.0811,-0.1102 -0.1739,-0.087l-0.7305 0.2783m1.5479 -0.3827l0.4521 1.2697c0.116,0.2899 0.0291,0.487 -0.2608,0.5913l-1.7392 0.6261 -0.0695 -0.2957 -0.5567 -1.5826 -0.1564 -0.2609 1.7392 -0.6261c0.2899,-0.1044 0.4869,-0.0117 0.5913,0.2782z"/>
   <polygon id="_138354944" class="fil232" points="40.4996,12.6582 40.5169,12.9712 40.8995,14.5886 41.0039,14.8843 40.2734,15.0582 40.2561,14.7452 39.8734,13.1278 39.7516,12.8321 "/>
   <path id="_137804720" class="fil232" d="M43.5605 12.4842l-1.0436 0.1218c-0.0811,0.0115 -0.1158,0.0637 -0.1042,0.1566l0.1564 1.4086c0.0233,0.0928 0.0755,0.1333 0.1566,0.1218l0.6957 -0.0696 0.0869 -0.1217 -0.0695 -0.6783 -0.5914 0.0696 -0.1565 0.0695 -0.0348 -0.3303 1.4262 -0.174 0 0.3131 0.0869 0.7477 0.0696 0.2957 -0.5914 0.0697 -0.052 -0.1914 -0.0175 0c0,0.1275 -0.0869,0.203 -0.2609,0.2261l-0.9043 0.1044c-0.3015,0.0347 -0.4696,-0.0986 -0.5045,-0.4001l-0.1564 -1.3566c-0.0349,-0.3014 0.0985,-0.4695 0.3999,-0.5043l1.6696 -0.1913 0.0871 0.3304 -0.3479 -0.0174z"/>
   <polygon id="_138936960" class="fil232" points="46.065,12.119 46.0301,12.432 46.0301,14.0843 46.065,14.3974 45.3171,14.3974 45.3519,14.0843 45.3519,12.432 45.3171,12.119 "/>
   <path id="_139109344" class="fil232" d="M49.0217 12.6582l-0.3479 -0.0871 -0.3478 -0.0173 -0.1566 1.6696c-0.0116,0.116 -0.0058,0.2204 0.0175,0.313l-0.7653 -0.0695 0.0695 -0.313 0.1565 -1.6697 -0.3477 -0.0348 -0.3479 0.0175 0.0869 -0.3305 1.9479 0.1739 0.0349 0.3479z"/>
   <path id="_139109296" class="fil232" d="M50.3608 12.5538l0.7304 0.1566 0.4349 1.9826c0.0463,0.2435 0.0985,0.4001 0.1565,0.4696l-0.8348 -0.1739 0.0173 -0.0522 -0.0173 -0.3304 -0.0696 -0.2956 -1.0087 -0.2088 -0.2262 0.2957 -0.1217 0.2956 -0.4174 -0.1044 0.3305 -0.3652 1.0783 -1.513 -0.0522 -0.1566m0.1566 0.5218l-0.5566 0.7653 0.7479 0.1564 -0.1913 -0.9217z"/>
   <polygon id="_138231952" class="fil232" points="53.7696,13.806 53.1783,15.3713 53.9784,15.6844 54.3261,15.754 54.1523,16.0496 52.3957,15.4061 52.5522,15.1278 53.1261,13.5625 53.1958,13.2669 53.9087,13.5277 "/>
  </g>
  <g id="_137782720">
   <polygon id="_138371848" class="fil233" points="8.2893,20.902 5.5414,34.7982 5.1066,35.2157 8.0111,20.4846 "/>
   <polygon id="_138897760" class="fil234" points="14.9158,35.2157 5.1066,35.2157 5.5414,34.7982 14.5158,34.7982 "/>
   <polygon id="_138236208" class="fil235" points="17.2637,20.902 8.2893,20.902 8.0111,20.4846 17.8202,20.4846 "/>
   <polygon id="_138221432" class="fil236" points="14.5158,34.7982 14.8461,33.146 15.2462,33.546 14.9158,35.2157 "/>
   <polygon id="_137730296" class="fil234" points="14.8461,33.146 16.5158,33.146 16.8985,33.5634 15.2462,33.546 "/>
   <polygon id="_138702544" class="fil236" points="16.9507,22.5194 17.2637,20.902 17.8202,20.4846 17.4898,22.1195 "/>
   <polygon id="_139444928" class="fil235" points="18.6028,22.5194 16.9507,22.5194 17.4898,22.1195 19.1595,22.1195 "/>
   <polygon id="_138914592" class="fil236" points="19.1595,22.1195 16.8985,33.5634 16.5158,33.146 18.6028,22.5194 "/>
   <polygon id="_138914544" class="fil235" points="12.6026,32.3982 10.0807,32.3982 10.6373,31.9634 12.307,31.9634 "/>
   <polygon id="_138372688" class="fil236" points="12.2721,23.7021 10.6373,31.9634 10.0807,32.3982 11.8722,23.2847 "/>
   <polygon id="_139503160" class="fil234" points="11.8722,23.2847 14.394,23.2847 13.9418,23.7021 12.2721,23.7021 "/>
   <polygon id="_138368744" class="fil233" points="14.394,23.2847 12.6026,32.3982 12.307,31.9634 13.9418,23.7021 "/>
   <polygon id="_138511256" class="fil233" points="21.4204,20.8846 18.6899,34.7809 18.2203,35.1809 21.1073,20.4672 "/>
   <polygon id="_139187648" class="fil234" points="18.6899,34.7809 22.7422,34.7809 23.1248,35.1809 18.2203,35.1809 "/>
   <polygon id="_138411352" class="fil236" points="26.0119,20.4672 23.1248,35.1809 22.7422,34.7809 25.4728,20.8846 "/>
   <polygon id="_139124576" class="fil234" points="25.6119,33.146 27.2467,33.146 26.7597,33.5634 25.1423,33.546 "/>
   <polygon id="_139037592" class="fil233" points="27.2467,33.146 26.9163,34.7982 26.4294,35.2157 26.7597,33.5634 "/>
   <polygon id="_139345480" class="fil233" points="27.7163,22.5194 25.6119,33.146 25.1423,33.546 27.3859,22.1195 "/>
   <polygon id="_138924776" class="fil235" points="29.3337,22.5194 27.7163,22.5194 27.3859,22.1195 29.0207,22.1195 "/>
   <polygon id="_138615104" class="fil233" points="29.6643,20.902 29.3337,22.5194 29.0207,22.1195 29.3337,20.4846 "/>
   <polygon id="_139143624" class="fil234" points="32.9862,35.2157 26.4294,35.2157 26.9163,34.7982 32.6383,34.7982 "/>
   <polygon id="_139503800" class="fil235" points="32.3426,32.3982 29.8208,32.3982 30.3425,31.9634 32.0121,31.9634 "/>
   <polygon id="_139390176" class="fil236" points="31.9774,23.7021 30.3425,31.9634 29.8208,32.3982 31.6122,23.2847 "/>
   <polygon id="_138454296" class="fil233" points="31.6469,27.4762 31.1773,29.8589 30.6904,30.2763 31.3339,27.0587 "/>
   <polygon id="_139338528" class="fil236" points="32.6383,34.7982 32.9513,33.146 33.3166,33.5634 32.9862,35.2157 "/>
   <polygon id="_139194432" class="fil234" points="31.1773,29.8589 32.847,29.8589 32.36,30.2763 30.6904,30.2763 "/>
   <polygon id="_22608656" class="fil233" points="33.821,33.146 33.4905,34.7982 33.0035,35.2157 33.3339,33.5634 "/>
   <polygon id="_138925424" class="fil233" points="32.847,29.8589 32.3426,32.3982 32.0121,31.9634 32.36,30.2763 "/>
   <polygon id="_138913448" class="fil235" points="38.656,20.902 29.6643,20.902 29.3337,20.4846 39.1776,20.4846 "/>
   <polygon id="_138620048" class="fil234" points="32.9513,33.146 33.821,33.146 33.3339,33.5634 33.3166,33.5634 "/>
   <polygon id="_22601064" class="fil234" points="36.2733,35.2157 33.0035,35.2157 33.4905,34.7982 35.9254,34.7982 "/>
   <polygon id="_138455096" class="fil234" points="31.6122,23.2847 35.7688,23.2847 35.2819,23.7021 31.9774,23.7021 "/>
   <polygon id="_138550168" class="fil235" points="37.3689,27.4762 31.6469,27.4762 31.3339,27.0587 37.8907,27.0587 "/>
   <polygon id="_138409616" class="fil233" points="35.7688,23.2847 35.4384,24.937 34.9515,25.3544 35.2819,23.7021 "/>
   <polygon id="_138959280" class="fil234" points="38.2211,25.3544 34.9515,25.3544 35.4384,24.937 37.8734,24.937 "/>
   <polygon id="_138952832" class="fil236" points="37.8907,27.0587 36.2733,35.2157 35.9254,34.7982 37.3689,27.4762 "/>
   <polygon id="_137737448" class="fil236" points="39.1776,20.4846 38.2211,25.3544 37.8734,24.937 38.656,20.902 "/>
   <polygon id="_139175720" class="fil235" points="60.0308,20.902 55.9784,20.902 55.6132,20.4846 60.5177,20.4846 "/>
   <polygon id="_139506968" class="fil236" points="60.5177,20.4846 57.6134,35.2157 57.2828,34.7982 60.0308,20.902 "/>
   <polygon id="_139444784" class="fil234" points="57.6134,35.2157 52.7087,35.2157 53.2305,34.7982 57.2828,34.7982 "/>
   <polygon id="_139508216" class="fil233" points="55.9784,20.902 55.3349,24.1891 54.9697,23.7717 55.6132,20.4846 "/>
   <polygon id="_138927032" class="fil233" points="54.5349,28.2241 53.2305,34.7982 52.7087,35.2157 54.0131,28.6415 "/>
   <polygon id="_22607584" class="fil234" points="53.6653,28.2241 54.5349,28.2241 54.0131,28.6415 53.9958,28.6415 "/>
   <polygon id="_139138192" class="fil236" points="53.9958,28.6415 53.3522,31.9286 53.0218,31.5112 53.6653,28.2241 "/>
   <polygon id="_21943600" class="fil236" points="52.3261,20.4846 51.6652,23.7717 51.1783,24.1891 51.8217,20.902 "/>
   <polygon id="_138367928" class="fil235" points="51.8217,20.902 47.7695,20.902 47.4216,20.4846 52.3261,20.4846 "/>
   <polygon id="_137826656" class="fil235" points="55.3349,24.1891 51.1783,24.1891 51.6652,23.7717 54.9697,23.7717 "/>
   <polygon id="_139536152" class="fil234" points="45.0214,34.7982 47.4216,34.7982 47.752,35.2157 44.5171,35.2157 "/>
   <polygon id="_139104352" class="fil234" points="48.9695,31.5112 53.0218,31.5112 53.3522,31.9286 48.4477,31.9286 "/>
   <polygon id="_138234064" class="fil236" points="47.4216,34.7982 48.7085,28.2241 49.0564,28.6415 47.752,35.2157 "/>
   <polygon id="_137822008" class="fil233" points="49.6129,28.2241 48.9695,31.5112 48.4477,31.9286 49.0912,28.6415 "/>
   <polygon id="_138512800" class="fil234" points="49.0564,28.6415 48.7085,28.2241 49.6129,28.2241 49.0912,28.6415 "/>
   <polygon id="_138923592" class="fil233" points="47.7695,20.902 45.0214,34.7982 44.5171,35.2157 47.4216,20.4846 "/>
   <polygon id="_138396880" class="fil234" points="66.1702,23.2847 68.692,23.2847 68.1529,23.7021 66.4832,23.7021 "/>
   <polygon id="_138929600" class="fil233" points="68.692,23.2847 66.9006,32.3982 66.5181,31.9634 68.1529,23.7021 "/>
   <polygon id="_139206704" class="fil235" points="66.9006,32.3982 64.3788,32.3982 64.8484,31.9634 66.5181,31.9634 "/>
   <polygon id="_22575112" class="fil236" points="66.4832,23.7021 64.8484,31.9634 64.3788,32.3982 66.1702,23.2847 "/>
   <polygon id="_138370888" class="fil235" points="72.9009,22.5194 71.2313,22.5194 71.7009,22.1195 73.3705,22.1195 "/>
   <polygon id="_139037976" class="fil236" points="71.2313,22.5194 71.5618,20.902 72.0313,20.4846 71.7009,22.1195 "/>
   <polygon id="_138317928" class="fil236" points="73.3705,22.1195 71.1096,33.5634 70.7965,33.146 72.9009,22.5194 "/>
   <polygon id="_16190240" class="fil234" points="71.1096,33.5634 69.4573,33.5634 69.1443,33.146 70.7965,33.146 "/>
   <polygon id="_138935424" class="fil236" points="68.8137,34.7982 69.1443,33.146 69.4573,33.5634 69.1269,35.2157 "/>
   <polygon id="_138699240" class="fil235" points="71.5618,20.902 64.2222,20.902 63.8397,20.4846 72.0313,20.4846 "/>
   <polygon id="_139536584" class="fil234" points="69.1269,35.2157 60.9351,35.2157 61.4743,34.7982 68.8137,34.7982 "/>
   <polygon id="_138699560" class="fil233" points="63.8397,20.4846 64.2222,20.902 63.8919,22.5194 63.5266,22.1195 "/>
   <polygon id="_138321200" class="fil235" points="61.8917,22.1195 63.5266,22.1195 63.8919,22.5194 62.2569,22.5194 "/>
   <polygon id="_22439664" class="fil233" points="61.8048,33.146 61.4743,34.7982 60.9351,35.2157 61.2657,33.5634 "/>
   <polygon id="_137715456" class="fil234" points="60.1699,33.146 61.8048,33.146 61.2657,33.5634 59.6482,33.546 "/>
   <polygon id="_139565416" class="fil233" points="62.2569,22.5194 60.1699,33.146 59.6482,33.546 61.8917,22.1195 "/>
   <polygon id="_138896936" class="fil235" points="84.7102,20.902 82.3274,20.902 81.9274,20.4846 85.1624,20.4846 "/>
   <polygon id="_137781216" class="fil236" points="85.1624,20.4846 82.2579,35.2157 81.9796,34.7982 84.7102,20.902 "/>
   <polygon id="_139326640" class="fil233" points="82.3274,20.902 81.023,27.4762 80.623,27.0587 81.9274,20.4846 "/>
   <polygon id="_139096416" class="fil236" points="80.136,27.4762 80.7795,24.1891 81.2318,23.7717 80.5882,27.0587 "/>
   <polygon id="_139080568" class="fil235" points="81.023,27.4762 80.136,27.4762 80.5882,27.0587 80.623,27.0587 "/>
   <polygon id="_139145032" class="fil234" points="77.9272,34.7982 81.9796,34.7982 82.2579,35.2157 77.3707,35.2157 "/>
   <polygon id="_139156664" class="fil235" points="80.7795,24.1891 79.1447,24.1891 79.6143,23.7717 81.2318,23.7717 "/>
   <polygon id="_22422112" class="fil236" points="80.2577,20.4846 79.6143,23.7717 79.1447,24.1891 79.8056,20.902 "/>
   <polygon id="_139073544" class="fil235" points="79.8056,20.902 75.7359,20.902 75.3532,20.4846 80.2577,20.4846 "/>
   <polygon id="_138910472" class="fil233" points="78.0142,31.9286 78.5707,31.5112 77.9272,34.7982 77.3707,35.2157 "/>
   <polygon id="_137806408" class="fil234" points="76.9359,31.5112 78.5707,31.5112 78.0142,31.9286 76.3793,31.9286 "/>
   <polygon id="_138040944" class="fil234" points="76.6925,28.2241 77.5793,28.2241 77.0402,28.6415 76.9881,28.6415 "/>
   <polygon id="_22467216" class="fil233" points="77.5793,28.2241 76.9359,31.5112 76.3793,31.9286 77.0402,28.6415 "/>
   <polygon id="_138550360" class="fil236" points="76.9881,28.6415 75.7011,35.2157 75.388,34.7982 76.6925,28.2241 "/>
   <polygon id="_22603160" class="fil234" points="73.0053,34.7982 75.388,34.7982 75.7011,35.2157 72.4487,35.2157 "/>
   <polygon id="_22477784" class="fil233" points="75.7359,20.902 73.0053,34.7982 72.4487,35.2157 75.3532,20.4846 "/>
   <polygon id="_139141808" class="fil235" points="25.5075,20.902 21.4551,20.902 21.1421,20.4846 26.0467,20.4846 "/>
   <polygon id="_138270328" class="fil233" points="41.1951,20.902 38.4646,34.7982 37.9951,35.1983 40.8821,20.4846 "/>
   <polygon id="_138177824" class="fil236" points="45.7867,20.4846 42.8823,35.1983 42.5169,34.7982 45.2475,20.902 "/>
   <polygon id="_137827120" class="fil235" points="45.2475,20.902 41.1951,20.902 40.8821,20.4846 45.7867,20.4846 "/>
   <polygon id="_22602664" class="fil234" points="42.917,35.1809 38.0298,35.1809 38.5168,34.7809 42.5691,34.7809 "/>
  </g>
 </g>
</svg>
